<?xml version="1.0" encoding="UTF-8" standalone="no" ?>
<!DOCTYPE svg PUBLIC "-//W3C//DTD SVG 1.1//EN" "http://www.w3.org/Graphics/SVG/1.1/DTD/svg11.dtd">
<svg xmlns="http://www.w3.org/2000/svg" xmlns:xlink="http://www.w3.org/1999/xlink" version="1.1" width="2000" height="1000" viewBox="0 0 2000 1000" xml:space="preserve">
<desc>Created with Fabric.js 5.2.4</desc>
<defs>
</defs>
<rect x="0" y="0" width="100%" height="100%" fill="transparent"></rect>
<g transform="matrix(Infinity NaN NaN Infinity 0 0)" id="c9f1fe60-e018-4490-aaac-1fd8649e1a03"  >
</g>
<g transform="matrix(1 0 0 1 1000 500)" id="fda9ff30-eecd-40dd-a86f-2a48400d4181"  >
<rect style="stroke: none; stroke-width: 1; stroke-dasharray: none; stroke-linecap: butt; stroke-dashoffset: 0; stroke-linejoin: miter; stroke-miterlimit: 4; fill: rgb(255,255,255); fill-rule: nonzero; opacity: 1; visibility: hidden;" vector-effect="non-scaling-stroke"  x="-1000" y="-500" rx="0" ry="0" width="2000" height="1000" />
</g>
<g transform="matrix(0.93 0 0 0.93 619.59 500)"  >
<g style="" vector-effect="non-scaling-stroke"   >
		<g transform="matrix(1 0 0 1 1.65 -0.09)"  >
<path style="stroke: none; stroke-width: 1; stroke-dasharray: none; stroke-linecap: butt; stroke-dashoffset: 0; stroke-linejoin: miter; stroke-miterlimit: 4; fill: rgb(224,4,4); fill-rule: evenodd; opacity: 1;" vector-effect="non-scaling-stroke"  transform=" translate(-201.8, -199.85)" d="M 198.4 76.34 L 198.4 86.8 L 234.776 86.8 C 258.596 86.8 271.238 86.662 271.4 86.4 C 271.536 86.18 271.367 86 271.024 86 C 270.681 86 270.4 85.823 270.4 85.608 C 270.4 85.392 269.95 85.102 269.4 84.964 C 268.85 84.826 268.4 84.572 268.4 84.4 C 268.4 84.228 267.935 83.97 267.366 83.827 C 266.797 83.684 265.946 83.208 265.474 82.768 C 265.002 82.329 264.207 81.866 263.708 81.741 C 263.209 81.616 262.8 81.367 262.8 81.188 C 262.8 81.01 262.26 80.745 261.6 80.6 C 260.94 80.455 260.4 80.171 260.4 79.968 C 260.4 79.766 260.175 79.594 259.9 79.586 C 259.625 79.579 258.68 79.225 257.8 78.8 C 256.92 78.375 255.885 78.021 255.5 78.014 C 255.115 78.006 254.8 77.862 254.8 77.694 C 254.8 77.323 251.831 76 250.997 76 C 250.669 76 250.4 75.822 250.4 75.605 C 250.4 75.387 249.68 75.094 248.8 74.954 C 247.92 74.813 247.2 74.564 247.2 74.4 C 247.2 74.236 246.48 73.987 245.6 73.846 C 244.72 73.706 244 73.413 244 73.195 C 244 72.978 243.561 72.8 243.024 72.8 C 242.487 72.8 241.949 72.641 241.829 72.446 C 241.708 72.252 240.802 71.971 239.814 71.823 C 238.827 71.675 237.928 71.408 237.818 71.23 C 237.708 71.051 236.721 70.787 235.625 70.641 C 234.53 70.496 233.54 70.226 233.425 70.041 C 233.311 69.856 232.091 69.578 230.713 69.422 C 229.335 69.266 228.012 68.976 227.772 68.777 C 227.532 68.578 225.776 68.295 223.868 68.149 C 221.961 68.002 220.4 67.729 220.4 67.541 C 220.4 67.353 219.446 67.2 218.28 67.2 C 217.114 67.2 215.989 67.031 215.78 66.824 C 215.571 66.617 211.575 66.32 206.9 66.164 L 198.4 65.88 L 198.4 76.34 M 247.5 107.5 L 198.4 107.603 L 198.4 117.802 L 198.4 128 L 256.003 128 C 313.507 128 313.606 127.999 313.107 127.2 C 312.832 126.76 312.471 126.4 312.304 126.4 C 312.137 126.4 312 126.124 312 125.787 C 312 125.451 311.73 125.071 311.4 124.945 C 311.07 124.818 310.8 124.477 310.8 124.186 C 310.8 123.895 310.575 123.417 310.3 123.123 C 310.025 122.83 309.173 121.692 308.407 120.595 C 307.641 119.498 306.606 118.219 306.107 117.754 C 305.608 117.289 305.2 116.718 305.2 116.485 C 305.2 116.252 304.66 115.522 304 114.862 C 303.34 114.202 302.8 113.56 302.8 113.436 C 302.8 113.129 296.924 107.175 296.743 107.298 C 296.665 107.353 274.505 107.443 247.5 107.5 M 260.893 148.7 L 198.386 148.803 L 198.493 158.901 L 198.6 169 L 264.4 169 L 330.2 169 L 330.324 167.5 C 330.392 166.675 330.27 166 330.053 166 C 329.835 166 329.534 165.01 329.383 163.8 C 329.232 162.59 328.969 161.6 328.799 161.6 C 328.63 161.6 328.369 160.79 328.221 159.8 C 328.072 158.81 327.782 158 327.575 158 C 327.369 158 327.2 157.55 327.2 157 C 327.2 156.45 327.04 156 326.845 156 C 326.65 156 326.369 155.19 326.221 154.2 C 326.072 153.21 325.802 152.4 325.62 152.4 C 325.438 152.4 325.166 151.744 325.016 150.943 C 324.776 149.665 323.895 148.217 323.529 148.499 C 323.458 148.553 295.272 148.644 260.893 148.7 M 266.1 189.5 L 198.4 189.602 L 198.4 199.801 L 198.4 210 L 266.2 210 L 334 210 L 334 199.6 C 334 193.88 333.955 189.244 333.9 189.299 C 333.845 189.353 303.335 189.444 266.1 189.5 M 69.6 231.4 C 69.6 231.73 69.757 232 69.948 232 C 70.14 232 70.418 233.075 70.567 234.388 C 70.715 235.701 71.009 236.882 71.218 237.011 C 71.428 237.141 71.601 237.642 71.602 238.124 C 71.604 238.606 71.874 239.516 72.202 240.146 C 72.531 240.776 72.8 241.631 72.8 242.046 C 72.8 242.461 72.96 242.8 73.155 242.8 C 73.35 242.8 73.631 243.61 73.779 244.6 C 73.928 245.59 74.195 246.4 74.373 246.4 C 74.552 246.4 74.813 247.12 74.954 248 C 75.094 248.88 75.387 249.6 75.605 249.6 C 75.822 249.6 76 250.005 76 250.5 L 76 251.4 L 200.3 251.198 C 268.665 251.087 324.629 250.952 324.665 250.898 C 324.701 250.844 324.851 250.08 325 249.2 C 325.149 248.32 325.423 247.6 325.611 247.6 C 325.798 247.6 326.072 246.79 326.221 245.8 C 326.369 244.81 326.65 244 326.845 244 C 327.04 244 327.2 243.55 327.2 243 C 327.2 242.45 327.369 242 327.575 242 C 327.782 242 328.072 241.19 328.221 240.2 C 328.369 239.21 328.627 238.4 328.794 238.4 C 328.961 238.4 329.222 237.458 329.375 236.308 C 329.527 235.157 329.793 234.122 329.964 234.008 C 330.136 233.893 330.383 233.125 330.513 232.3 L 330.75 230.8 L 200.175 230.8 C 84.375 230.8 69.6 230.868 69.6 231.4 M 87.2 272.4 C 87.2 272.62 87.36 272.8 87.557 272.8 C 87.753 272.8 88.026 273.25 88.164 273.8 C 88.302 274.35 88.592 274.8 88.808 274.8 C 89.023 274.8 89.2 275.076 89.2 275.413 C 89.2 275.749 89.463 276.126 89.785 276.25 C 90.106 276.373 90.485 276.837 90.625 277.28 C 90.881 278.086 91.413 278.824 93.1 280.71 C 93.595 281.264 94 281.882 94 282.084 C 94 282.286 94.444 282.935 94.986 283.526 C 95.528 284.116 96.743 285.483 97.686 286.561 C 98.629 287.64 99.715 288.805 100.1 289.15 C 100.485 289.495 100.8 289.924 100.8 290.102 C 100.8 290.712 103.355 292.936 103.512 292.464 C 103.629 292.114 127.495 292 200.693 292 L 297.719 292 L 300.26 289.384 C 301.657 287.945 302.8 286.671 302.8 286.553 C 302.8 286.435 303.34 285.798 304 285.138 C 304.66 284.478 305.2 283.748 305.2 283.515 C 305.2 283.282 305.608 282.711 306.107 282.246 C 306.606 281.781 307.641 280.502 308.407 279.405 C 309.173 278.308 310.025 277.17 310.3 276.877 C 310.575 276.583 310.8 276.105 310.8 275.814 C 310.8 275.523 311.07 275.182 311.4 275.055 C 311.73 274.929 312 274.549 312 274.213 C 312 273.876 312.137 273.6 312.304 273.6 C 312.471 273.6 312.832 273.24 313.107 272.8 C 313.606 272.001 313.507 272 200.403 272 C 125.201 272 87.2 272.134 87.2 272.4 M 129.4 313.2 C 128.99 313.863 129.568 314.396 131.803 315.418 C 132.973 315.954 133.991 316.529 134.065 316.696 C 134.259 317.134 136.761 318.4 137.432 318.4 C 137.745 318.4 138 318.566 138 318.768 C 138 318.971 138.54 319.255 139.2 319.4 C 139.86 319.545 140.4 319.815 140.4 320 C 140.4 320.185 140.94 320.455 141.6 320.6 C 142.26 320.745 142.8 321.015 142.8 321.2 C 142.8 321.385 143.34 321.655 144 321.8 C 144.66 321.945 145.201 322.184 145.203 322.332 C 145.207 322.64 147.151 323.599 147.78 323.602 C 148.011 323.604 148.683 323.857 149.273 324.165 C 149.863 324.473 150.898 324.846 151.573 324.994 C 152.248 325.142 152.8 325.406 152.8 325.581 C 152.8 325.755 153.528 326.014 154.417 326.156 C 155.307 326.299 156.342 326.578 156.717 326.777 C 158.148 327.537 160.856 328.4 161.808 328.4 C 162.354 328.4 162.8 328.567 162.8 328.771 C 162.8 328.975 163.79 329.266 165 329.417 C 166.21 329.568 167.2 329.841 167.2 330.022 C 167.2 330.203 168.46 330.476 170 330.627 C 171.54 330.779 172.8 331.044 172.8 331.216 C 172.8 331.388 174.33 331.656 176.2 331.811 C 178.07 331.967 179.6 332.253 179.6 332.447 C 179.6 332.641 180.755 332.8 182.167 332.8 C 183.578 332.8 184.793 332.953 184.867 333.14 C 185.066 333.647 196.4 334.105 196.4 333.606 C 196.4 333.064 203.87 333.066 204.205 333.609 C 204.511 334.103 215.205 333.679 215.78 333.149 C 215.989 332.957 217.114 332.8 218.28 332.8 C 219.446 332.8 220.4 332.647 220.4 332.459 C 220.4 332.271 221.967 331.998 223.882 331.85 C 225.797 331.703 227.462 331.425 227.582 331.233 C 227.702 331.041 229.018 330.753 230.506 330.594 C 231.994 330.436 233.306 330.152 233.422 329.964 C 233.538 329.777 234.53 329.504 235.625 329.359 C 236.721 329.213 237.708 328.949 237.818 328.77 C 237.928 328.592 238.827 328.325 239.814 328.177 C 240.802 328.029 241.708 327.748 241.829 327.554 C 241.949 327.359 242.487 327.2 243.024 327.2 C 243.561 327.2 244 327.022 244 326.805 C 244 326.587 244.72 326.294 245.6 326.154 C 246.48 326.013 247.2 325.764 247.2 325.6 C 247.2 325.436 247.92 325.187 248.8 325.046 C 249.68 324.906 250.4 324.613 250.4 324.395 C 250.4 324.178 250.688 324 251.04 324 C 251.732 324 254.474 322.812 254.8 322.371 C 254.91 322.222 255.585 321.974 256.3 321.818 C 257.015 321.663 257.6 321.391 257.6 321.213 C 257.6 321.035 258.23 320.771 259 320.626 C 259.77 320.482 260.4 320.206 260.4 320.014 C 260.4 319.821 260.94 319.545 261.6 319.4 C 262.26 319.255 262.802 319.016 262.805 318.868 C 262.807 318.721 263.527 318.256 264.405 317.836 C 265.282 317.415 266 316.935 266 316.767 C 266 316.6 266.54 316.345 267.2 316.2 C 267.86 316.055 268.4 315.79 268.4 315.612 C 268.4 315.433 268.85 315.174 269.4 315.036 C 269.95 314.898 270.4 314.608 270.4 314.392 C 270.4 314.177 270.67 314 271 314 C 271.792 314 271.77 313.351 270.967 313.043 C 269.835 312.608 129.67 312.764 129.4 313.2" stroke-linecap="round" />
</g>
		<g transform="matrix(1 0 0 1 -67.84 -61.94)"  >
<path style="stroke: none; stroke-width: 1; stroke-dasharray: none; stroke-linecap: butt; stroke-dashoffset: 0; stroke-linejoin: miter; stroke-miterlimit: 4; fill: rgb(5,5,142); fill-rule: evenodd; opacity: 1;" vector-effect="non-scaling-stroke"  transform=" translate(-132.31, -138)" d="M 188.7 66.298 C 186.555 66.37 184.8 66.602 184.8 66.814 C 184.8 67.027 183.63 67.2 182.2 67.2 C 180.77 67.2 179.6 67.359 179.6 67.553 C 179.6 67.747 178.07 68.033 176.2 68.189 C 174.33 68.344 172.8 68.612 172.8 68.784 C 172.8 68.956 171.54 69.221 170 69.373 C 168.46 69.524 167.2 69.797 167.2 69.978 C 167.2 70.159 166.21 70.432 165 70.583 C 163.79 70.734 162.8 71.001 162.8 71.177 C 162.8 71.353 161.907 71.615 160.816 71.76 C 159.725 71.905 158.725 72.198 158.593 72.412 C 158.461 72.625 157.913 72.8 157.376 72.8 C 156.839 72.8 156.4 72.969 156.4 73.175 C 156.4 73.382 155.59 73.672 154.6 73.821 C 153.61 73.969 152.8 74.236 152.8 74.414 C 152.8 74.591 152.248 74.858 151.573 75.006 C 150.898 75.154 149.863 75.527 149.273 75.835 C 148.683 76.143 148.011 76.396 147.78 76.398 C 147.151 76.401 145.207 77.36 145.203 77.668 C 145.201 77.816 144.66 78.055 144 78.2 C 143.34 78.345 142.8 78.615 142.8 78.8 C 142.8 78.985 142.26 79.255 141.6 79.4 C 140.94 79.545 140.4 79.815 140.4 80 C 140.4 80.185 139.86 80.455 139.2 80.6 C 138.54 80.745 138 81.029 138 81.232 C 138 81.434 137.745 81.6 137.432 81.6 C 136.761 81.6 134.259 82.866 134.065 83.304 C 133.991 83.471 133.001 84.056 131.865 84.603 C 129.344 85.817 128.395 86.405 127.606 87.243 C 127.273 87.596 126.608 88.009 126.128 88.161 C 125.382 88.396 125.29 88.642 125.488 89.864 C 125.724 91.319 124.449 91.351 123.866 89.905 C 123.706 89.506 123.657 89.505 123.632 89.9 C 123.614 90.175 123.369 90.4 123.087 90.4 C 122.574 90.4 121.157 91.405 119.28 93.1 C 118.732 93.595 118.105 94 117.887 94 C 117.67 94 117.095 94.428 116.61 94.952 C 116.124 95.475 115.363 96.099 114.917 96.338 C 114.361 96.635 114.16 97.06 114.279 97.686 C 114.403 98.341 114.058 98.981 113.059 99.946 C 111.722 101.238 111.676 101.379 111.894 103.492 C 112.149 105.959 111.823 106.056 109.028 104.352 C 108.352 103.94 107.551 103.602 107.247 103.601 C 106.689 103.6 100.8 109.377 100.8 109.926 C 100.8 110.089 100.485 110.505 100.1 110.85 C 99.715 111.195 98.629 112.36 97.686 113.439 C 96.743 114.517 95.528 115.884 94.986 116.474 C 94.444 117.065 94 117.714 94 117.916 C 94 118.118 93.595 118.736 93.1 119.29 C 91.413 121.176 90.881 121.914 90.625 122.72 C 90.485 123.163 90.106 123.627 89.785 123.75 C 89.463 123.874 89.2 124.251 89.2 124.587 C 89.2 124.924 89.032 125.2 88.827 125.2 C 88.622 125.2 88.326 125.605 88.17 126.1 C 88.013 126.595 87.563 127.281 87.17 127.624 C 86.776 127.967 86.332 128.732 86.183 129.324 C 86.035 129.916 85.757 130.4 85.567 130.4 C 85.269 130.4 83.6 133.588 83.6 134.157 C 83.6 134.268 83.15 134.844 82.6 135.438 C 82.05 136.031 81.6 136.851 81.6 137.258 C 81.6 137.666 81.434 138 81.232 138 C 81.029 138 80.745 138.54 80.6 139.2 C 80.455 139.86 80.185 140.4 80 140.4 C 79.815 140.4 79.545 140.94 79.4 141.6 C 79.255 142.26 78.973 142.8 78.773 142.8 C 78.573 142.8 78.294 143.52 78.154 144.4 C 78.013 145.28 77.741 146 77.549 146 C 77.357 146 77.2 146.27 77.2 146.6 C 77.2 146.93 77.353 147.2 77.539 147.2 C 77.726 147.2 78.192 147.895 78.575 148.744 C 79.201 150.133 79.489 150.337 81.436 150.773 C 83.988 151.344 84.018 151.438 82.213 153.187 C 80.859 154.5 80.832 154.588 81.074 156.905 L 81.322 159.279 L 79.677 158.439 C 77.729 157.445 76.699 157.389 75.262 158.197 C 74.678 158.526 73.708 158.97 73.107 159.185 C 72.236 159.496 71.961 159.905 71.754 161.196 C 71.612 162.088 71.347 162.909 71.166 163.021 C 70.985 163.133 70.715 164.299 70.567 165.612 C 70.418 166.925 70.151 168 69.973 168 C 69.794 168 69.524 169.26 69.373 170.8 C 69.221 172.34 68.959 173.6 68.791 173.6 C 68.623 173.6 68.357 175.22 68.2 177.2 C 68.043 179.18 67.754 180.8 67.558 180.8 C 67.361 180.8 67.2 182.049 67.2 183.576 C 67.2 185.103 67.02 186.464 66.8 186.6 C 66.548 186.756 66.4 191.138 66.4 198.425 L 66.4 210.002 L 132.3 209.901 L 198.2 209.8 L 198.215 137.9 L 198.23 66 L 195.415 66.084 C 193.867 66.13 190.845 66.226 188.7 66.298 M 153.415 80.516 C 154.176 82.027 154.471 82.241 156.361 82.661 C 159.13 83.276 159.134 83.287 157.203 85.106 C 155.54 86.672 155.537 86.68 155.995 88.38 C 156.707 91.025 156.373 91.362 154.153 90.236 C 152.286 89.29 150.433 89.376 149.776 90.439 C 148.906 91.847 147.916 90.734 148.177 88.642 C 148.441 86.531 148.414 86.452 146.938 85.019 C 145.224 83.354 145.396 83.041 148.258 82.612 C 149.758 82.387 150.073 82.159 150.661 80.877 C 152.002 77.947 152.114 77.932 153.415 80.516 M 184.216 80.607 C 184.785 81.689 185.389 82.242 186.216 82.437 C 186.867 82.591 187.922 82.836 188.561 82.981 L 189.722 83.246 L 188.058 84.941 C 186.442 86.588 186.403 86.689 186.728 88.425 C 187.236 91.144 187.026 91.328 184.74 90.169 C 182.753 89.163 182.732 89.161 181.47 89.901 C 178.747 91.497 178.674 91.47 178.988 88.958 C 179.265 86.737 179.248 86.683 177.738 85.136 C 175.994 83.351 176.174 83.009 179.085 82.568 C 180.591 82.341 180.862 82.124 181.63 80.538 C 182.631 78.471 183.098 78.483 184.216 80.607 M 170.628 94.9 C 171.546 96.98 171.685 97.082 174.081 97.411 C 176.379 97.727 176.425 97.94 174.569 99.668 C 173.166 100.973 173.142 101.047 173.388 103.3 C 173.674 105.91 173.561 105.984 171.182 104.744 L 169.54 103.888 L 167.826 104.744 C 165.09 106.111 165.049 106.058 165.817 102.169 C 165.927 101.609 165.527 100.898 164.59 99.991 C 162.715 98.173 162.822 97.727 165.213 97.398 C 167.131 97.134 167.274 97.028 168.22 95.161 C 169.433 92.767 169.676 92.74 170.628 94.9 M 140.066 95.362 C 140.883 97.043 141.019 97.135 143.061 97.39 C 145.586 97.706 145.723 98.169 143.772 99.796 C 142.358 100.974 142.346 101.011 142.611 103.293 C 142.916 105.922 142.794 106.001 140.382 104.744 L 138.74 103.888 L 137.026 104.744 C 134.305 106.103 134.248 106.034 134.996 102.269 C 135.08 101.848 134.56 100.894 133.771 100.02 C 131.965 98.022 132.028 97.777 134.452 97.356 C 136.332 97.03 136.575 96.859 137.352 95.311 C 138.432 93.16 139.002 93.171 140.066 95.362 M 122.574 107.548 C 123.599 109.572 124.295 109.984 126.7 109.995 C 128.356 110.001 128.334 110.323 126.561 112.022 C 125.169 113.355 125.129 113.474 125.324 115.7 C 125.551 118.309 125.442 118.377 123.006 117.16 L 121.324 116.32 L 119.678 117.16 C 117.249 118.4 117.125 118.32 117.412 115.7 C 117.658 113.447 117.634 113.373 116.229 112.065 C 114.654 110.599 114.681 110.003 116.324 109.995 C 118.296 109.985 119.106 109.542 119.853 108.065 C 121.369 105.066 121.321 105.076 122.574 107.548 M 153.374 107.548 C 154.399 109.572 155.095 109.984 157.5 109.995 C 159.172 110.002 159.139 110.225 157.167 112.234 C 155.582 113.849 155.547 113.943 155.965 115.449 C 156.766 118.334 156.53 118.521 153.806 117.16 L 152.124 116.32 L 150.478 117.16 C 148.014 118.417 147.867 118.328 148.186 115.772 C 148.458 113.593 148.433 113.513 147.032 112.153 C 145.262 110.434 145.236 110.002 146.9 109.995 C 149.087 109.985 149.816 109.607 150.604 108.073 C 152.148 105.071 152.121 105.076 153.374 107.548 M 184.174 107.548 C 185.177 109.529 185.908 109.984 188.1 109.995 C 189.579 110.002 189.494 110.758 187.834 112.367 C 186.532 113.629 186.478 113.794 186.69 115.846 C 186.941 118.286 186.906 118.309 184.606 117.16 L 182.924 116.32 L 181.278 117.16 C 178.85 118.399 178.703 118.314 179.011 115.853 C 179.271 113.773 179.234 113.66 177.839 112.266 C 176.042 110.469 176.03 110 177.781 110 C 179.897 110 180.926 109.327 181.79 107.38 C 182.781 105.144 182.962 105.157 184.174 107.548 M 109.27 121.9 C 110.152 123.701 110.309 123.819 112.3 124.156 C 114.785 124.578 114.807 124.648 113.013 126.387 C 111.664 127.695 111.633 127.795 111.87 130.066 C 112.145 132.698 112.148 132.696 110 131.6 C 108.03 130.595 107.773 130.6 105.721 131.687 C 103.753 132.73 103.342 132.515 103.954 130.761 C 104.689 128.651 104.495 127.783 103 126.506 C 101.472 125.201 101.206 124.401 102.3 124.398 C 104.521 124.391 105.926 123.571 106.762 121.792 C 107.822 119.537 108.119 119.55 109.27 121.9 M 139.954 121.796 C 140.893 123.566 142.335 124.391 144.5 124.398 C 145.557 124.401 145.35 124.994 143.777 126.468 C 142.382 127.774 142.359 127.845 142.616 130.1 C 142.913 132.702 142.931 132.687 140.8 131.6 C 138.83 130.595 138.573 130.6 136.521 131.687 C 134.481 132.767 134.408 132.706 134.789 130.241 C 135.075 128.389 135.017 128.2 133.746 126.792 C 132.249 125.135 132.051 124.401 133.1 124.398 C 135.278 124.391 136.668 123.581 137.557 121.801 C 138.669 119.575 138.776 119.574 139.954 121.796 M 170.704 121.777 C 171.559 123.537 173.056 124.391 175.3 124.398 C 176.338 124.401 176.162 124.888 174.566 126.422 C 173.162 127.77 173.137 127.85 173.385 130.1 C 173.674 132.71 173.712 132.678 171.6 131.6 C 169.64 130.6 168.91 130.6 167.4 131.6 C 165.491 132.864 165.252 132.677 165.478 130.1 C 165.668 127.929 165.61 127.734 164.44 126.625 C 162.731 125.006 162.87 124.601 165.326 124.051 C 167.281 123.614 167.522 123.432 168.321 121.788 C 169.401 119.565 169.629 119.564 170.704 121.777 M 122.572 134.746 C 123.506 136.589 123.662 136.705 125.518 136.951 C 128.159 137.302 128.252 137.508 126.55 139.251 C 125.123 140.712 125.091 140.811 125.346 142.976 C 125.643 145.508 125.521 145.584 123.122 144.36 L 121.477 143.521 L 119.54 144.428 C 117.188 145.53 117.05 145.424 117.516 142.865 C 117.878 140.868 117.867 140.832 116.358 139.359 C 114.538 137.581 114.633 137.303 117.178 136.965 C 118.909 136.736 119.205 136.546 119.859 135.254 C 121.368 132.268 121.321 132.277 122.572 134.746 M 153.372 134.746 C 154.306 136.589 154.462 136.705 156.318 136.951 C 158.991 137.306 159.061 137.504 157.187 139.413 L 155.557 141.074 L 156.03 142.952 C 156.636 145.359 156.391 145.549 154.114 144.443 L 152.246 143.535 L 150.324 144.436 C 147.985 145.531 147.733 145.333 148.25 142.806 C 148.654 140.834 148.654 140.833 147.107 139.411 C 145.254 137.707 145.403 137.307 148.023 136.959 C 149.82 136.721 150.076 136.555 150.674 135.248 C 152.027 132.291 152.12 132.274 153.372 134.746 M 184.133 134.748 C 185.127 136.575 185.314 136.712 187.136 136.954 C 189.786 137.305 189.858 137.507 188.006 139.394 C 186.424 141.005 186.4 141.073 186.747 142.926 C 187.188 145.291 186.83 145.539 184.648 144.382 L 182.952 143.482 L 180.823 144.551 L 178.694 145.62 L 178.962 143.254 C 179.224 140.941 179.198 140.855 177.803 139.376 C 176.143 137.616 176.341 137.199 178.977 136.901 C 180.743 136.702 180.86 136.608 181.661 134.747 C 182.697 132.338 182.821 132.338 184.133 134.748 M 92 135 C 92.761 136.479 93.124 136.8 94.037 136.8 C 94.648 136.8 95.639 136.987 96.24 137.215 L 97.333 137.631 L 95.808 139.192 C 94.326 140.709 94.29 140.816 94.513 142.977 C 94.771 145.481 94.696 145.528 92.283 144.355 L 90.544 143.51 L 88.888 144.355 C 86.533 145.556 86.428 145.49 86.687 142.977 C 86.909 140.828 86.867 140.703 85.45 139.251 C 83.748 137.508 83.84 137.302 86.485 136.951 C 88.321 136.707 88.5 136.579 89.268 134.945 C 90.305 132.739 90.843 132.75 92 135 M 109.229 148.573 C 109.967 150.24 110.145 150.373 112.207 150.801 C 114.791 151.338 114.823 151.433 113.005 153.195 C 111.666 154.493 111.62 154.632 111.86 156.673 C 112.144 159.087 112.051 159.142 109.569 158.031 L 107.852 157.262 L 105.947 158.227 C 103.715 159.358 103.415 159.102 104.077 156.628 L 104.566 154.799 L 102.858 153.06 L 101.151 151.32 L 103.555 150.81 C 105.832 150.326 106.003 150.207 106.782 148.55 C 107.816 146.349 108.248 146.354 109.229 148.573 M 139.97 148.538 C 140.744 150.137 140.985 150.314 143.005 150.766 C 145.6 151.347 145.624 151.424 143.762 153.18 C 142.367 154.496 142.333 154.598 142.591 156.668 C 142.889 159.055 142.454 159.378 140.587 158.154 C 139.539 157.468 138.279 157.547 136.115 158.436 C 134.47 159.112 134.391 158.999 134.836 156.62 C 135.2 154.673 135.181 154.614 133.706 153.103 C 132.003 151.36 132.171 151.045 135.035 150.616 C 136.591 150.382 136.8 150.207 137.469 148.582 C 138.385 146.352 138.907 146.343 139.97 148.538 M 170.725 148.529 C 171.478 150.131 171.703 150.296 173.769 150.758 C 176.402 151.347 176.429 151.431 174.566 153.222 C 173.163 154.569 173.137 154.651 173.385 156.895 C 173.661 159.394 173.495 159.489 171.301 158.084 C 170.342 157.471 169.003 157.579 166.915 158.436 C 165.292 159.103 165.223 159.011 165.583 156.677 C 165.862 154.871 165.799 154.664 164.549 153.277 C 162.819 151.357 162.824 151.341 165.393 150.767 C 167.02 150.403 167.654 150.06 167.85 149.438 C 168.759 146.565 169.667 146.278 170.725 148.529 M 91.991 162.291 C 92.005 163.043 93.705 163.991 95.63 164.32 L 97.364 164.616 L 95.828 166.316 C 94.332 167.972 94.299 168.075 94.553 170.238 C 94.836 172.646 94.392 172.856 92.211 171.346 C 91.777 171.046 91.052 170.8 90.6 170.8 C 90.148 170.8 89.423 171.046 88.989 171.346 C 86.844 172.831 86.456 172.624 86.676 170.115 C 86.869 167.927 86.812 167.736 85.64 166.625 C 84.281 165.338 84.034 164.4 85.054 164.4 C 86.618 164.4 88.797 163.44 89.05 162.639 C 89.196 162.178 89.591 161.378 89.928 160.863 L 90.541 159.926 L 91.261 160.863 C 91.658 161.378 91.986 162.021 91.991 162.291 M 122.61 161.806 C 123.414 163.644 124.178 164.089 127.192 164.473 C 128.18 164.6 128.178 164.606 126.638 166.308 C 125.131 167.974 125.098 168.072 125.353 170.238 C 125.636 172.646 125.192 172.856 123.011 171.346 C 122.577 171.046 121.852 170.8 121.4 170.8 C 120.948 170.8 120.223 171.046 119.789 171.346 C 117.572 172.881 117.109 172.665 117.413 170.237 C 117.686 168.046 117.66 167.963 116.162 166.305 L 114.632 164.611 L 116.663 164.206 C 118.752 163.789 120 163.053 120 162.24 C 120 161.668 121.141 160 121.533 160 C 121.691 160 122.176 160.813 122.61 161.806 M 153.28 161.629 C 153.653 162.383 154.022 163.16 154.098 163.356 C 154.175 163.552 155.309 163.929 156.619 164.193 L 159 164.674 L 157.277 166.407 L 155.554 168.14 L 156.022 170.092 C 156.61 172.543 156.337 172.812 154.394 171.693 C 152.603 170.663 151.696 170.58 150.589 171.346 C 148.338 172.904 147.873 172.682 148.183 170.196 C 148.466 167.934 148.45 167.885 146.961 166.36 C 145.217 164.574 145.189 164.648 147.8 164.168 C 149.648 163.828 149.876 163.655 150.8 161.901 C 151.938 159.741 152.322 159.698 153.28 161.629 M 184.18 161.961 C 185.126 163.828 185.269 163.934 187.187 164.198 C 189.574 164.527 189.699 165.011 187.823 166.672 C 186.488 167.854 186.454 167.959 186.679 170.145 C 186.935 172.625 186.767 172.77 185 171.6 C 183.49 170.6 182.76 170.6 180.8 171.6 C 178.664 172.69 178.671 172.695 178.989 170.152 C 179.265 167.942 179.244 167.879 177.761 166.36 C 176.017 164.574 175.989 164.648 178.6 164.168 C 180.448 163.828 180.676 163.655 181.6 161.901 C 182.842 159.544 182.957 159.546 184.18 161.961 M 109.664 175.926 C 110.205 176.914 110.671 177.192 112.169 177.416 C 114.618 177.783 114.762 178.196 113.054 179.945 C 111.677 181.354 111.627 181.506 111.864 183.509 C 112.148 185.912 111.971 186.009 109.553 184.776 L 107.937 183.952 L 106.356 184.776 C 104.497 185.745 103.419 185.849 103.734 185.028 C 104.675 182.575 104.523 181.559 102.976 179.976 C 101.249 178.207 101.336 177.959 103.885 177.4 C 105.501 177.045 105.826 176.781 106.748 175.072 C 107.898 172.939 108.055 172.985 109.664 175.926 M 78.477 175.299 C 79.301 176.792 79.651 177.048 81.379 177.414 C 83.841 177.936 83.957 178.297 82.211 179.99 C 80.865 181.294 80.82 181.43 81.06 183.473 C 81.346 185.908 81.188 185.998 78.812 184.76 L 77.2 183.919 L 75.588 184.76 C 73.22 185.994 73.057 185.904 73.37 183.539 C 73.634 181.553 73.591 181.424 72.176 179.975 C 70.634 178.396 70.63 177.6 72.164 177.6 C 74.067 177.6 75.388 176.796 76.133 175.185 C 77.056 173.189 77.32 173.202 78.477 175.299 M 140.083 175.397 C 140.899 177.075 141.083 177.21 142.887 177.449 C 145.41 177.784 145.529 178.1 143.803 179.878 C 142.415 181.307 142.372 181.439 142.627 183.481 C 142.932 185.918 142.809 185.983 140.253 184.741 L 138.485 183.882 L 137.095 184.741 C 134.505 186.342 134.236 186.015 135.013 182.204 C 135.119 181.685 134.667 180.888 133.714 179.912 C 132.051 178.209 132.148 177.957 134.682 177.4 C 136.264 177.052 136.613 176.779 137.351 175.311 C 138.436 173.153 139.002 173.17 140.083 175.397 M 170.751 175.386 C 171.545 177.074 171.701 177.186 173.604 177.438 C 176.194 177.782 176.278 177.991 174.54 179.781 C 173.148 181.214 173.107 181.342 173.352 183.433 C 173.642 185.902 173.55 185.954 171.053 184.741 L 169.285 183.882 L 167.895 184.741 C 165.305 186.342 165.036 186.015 165.813 182.204 C 165.919 181.685 165.467 180.888 164.514 179.912 C 162.846 178.204 162.946 177.954 165.519 177.4 C 166.687 177.148 167.533 176.703 167.798 176.2 C 169.482 173 169.613 172.964 170.751 175.386 M 91.961 189.2 C 92.842 191.149 92.909 191.2 94.584 191.2 C 97.132 191.2 97.513 191.975 95.739 193.547 C 94.338 194.787 94.298 194.897 94.513 196.98 C 94.793 199.695 94.702 199.767 92.421 198.611 L 90.539 197.657 L 88.829 198.628 C 86.495 199.954 86.447 199.922 86.69 197.234 C 86.902 194.899 86.885 194.85 85.413 193.558 C 83.659 192.018 84.152 191.2 86.834 191.2 C 88.218 191.2 88.377 191.069 89.258 189.207 C 90.44 186.707 90.834 186.706 91.961 189.2 M 122.57 188.91 C 123.476 190.898 123.823 191.186 125.326 191.194 C 127.877 191.208 128.305 191.951 126.607 193.419 L 125.08 194.739 L 125.334 197.169 C 125.621 199.915 125.537 199.972 123.171 198.628 L 121.461 197.657 L 119.522 198.639 C 117.269 199.781 116.949 199.501 117.533 196.9 C 117.885 195.332 117.837 195.203 116.36 193.761 C 114.509 191.953 114.816 191.2 117.403 191.2 C 118.983 191.2 119.16 191.09 119.807 189.7 C 121.203 186.702 121.522 186.611 122.57 188.91 M 153.647 189.409 C 154.431 190.978 154.703 191.2 155.838 191.2 C 158.721 191.2 158.986 191.787 157 193.773 C 155.422 195.351 155.451 195.246 156.034 197.348 C 156.631 199.498 156.098 199.837 153.996 198.643 L 152.261 197.657 L 150.322 198.639 C 148.063 199.784 147.658 199.437 148.299 196.905 C 148.66 195.477 148.597 195.314 147.064 193.708 C 145.202 191.758 145.278 191.552 147.948 191.295 C 149.596 191.137 149.991 190.936 150.386 190.053 C 151.847 186.793 152.297 186.704 153.647 189.409 M 184.346 189.331 C 185.196 190.982 185.462 191.2 186.621 191.2 C 189.504 191.2 189.746 191.709 187.829 193.742 C 186.524 195.125 186.468 195.303 186.685 197.398 C 186.947 199.938 186.989 199.913 184.646 198.605 L 182.864 197.61 L 181.132 198.6 C 178.757 199.958 178.669 199.907 178.989 197.352 C 179.264 195.15 179.24 195.074 177.798 193.598 C 176.143 191.903 176.308 191.574 179 191.214 C 180.421 191.024 180.712 190.788 181.6 189.101 C 182.787 186.848 183.081 186.873 184.346 189.331" stroke-linecap="round" />
</g>
		<g transform="matrix(1 0 0 1 -0.08 -4.05)"  >
<path style="stroke: none; stroke-width: 1; stroke-dasharray: none; stroke-linecap: butt; stroke-dashoffset: 0; stroke-linejoin: miter; stroke-miterlimit: 4; fill: rgb(239,239,239); fill-rule: evenodd; opacity: 1;" vector-effect="non-scaling-stroke"  transform=" translate(-200.07, -195.89)" d="M 151.264 80.741 C 150.373 82.811 149.758 83.184 147.219 83.195 L 145.838 83.2 L 147.377 84.777 C 148.854 86.289 148.907 86.436 148.677 88.377 C 148.405 90.673 148.45 90.701 150.543 89.579 L 152.075 88.758 L 153.65 89.579 C 155.817 90.709 155.891 90.665 155.601 88.408 C 155.36 86.529 155.421 86.343 156.673 85.13 C 158.287 83.565 158.33 83.202 156.9 83.195 C 154.698 83.184 154.003 82.741 153.046 80.741 L 152.107 78.78 L 151.264 80.741 M 182.524 79.668 C 182.29 79.961 181.979 80.589 181.833 81.064 C 181.435 82.367 180.505 82.951 178.455 83.187 L 176.6 83.4 L 178.144 84.8 C 179.641 86.158 179.681 86.263 179.473 88.3 C 179.354 89.455 179.329 90.4 179.417 90.4 C 179.504 90.4 180.295 90.025 181.176 89.566 L 182.776 88.732 L 184.585 89.635 C 186.767 90.725 186.88 90.649 186.324 88.459 C 185.891 86.756 185.901 86.732 187.628 84.972 L 189.367 83.2 L 187.783 83.172 C 185.455 83.131 184.789 82.74 183.823 80.844 C 183.143 79.512 182.857 79.253 182.524 79.668 M 271.236 86.956 C 270.752 87.539 267.292 87.6 234.551 87.6 L 198.4 87.6 L 198.4 97.4 L 198.4 107.2 L 247.4 107.2 C 287.412 107.2 296.4 107.104 296.4 106.678 C 296.4 106.153 293.991 103.6 293.495 103.6 C 293.348 103.6 291.968 102.34 290.428 100.8 C 288.888 99.26 287.351 98 287.014 98 C 286.676 98 286.4 97.834 286.4 97.631 C 286.4 97.12 284.035 94.8 283.515 94.8 C 283.282 94.8 282.675 94.35 282.165 93.8 C 281.655 93.25 281.118 92.8 280.972 92.8 C 280.825 92.8 280.052 92.254 279.253 91.586 C 277.073 89.765 277.006 89.719 276.069 89.422 C 275.591 89.27 275.2 88.978 275.2 88.773 C 275.2 88.568 274.924 88.4 274.587 88.4 C 274.251 88.4 273.871 88.13 273.745 87.8 C 273.618 87.47 273.189 87.2 272.791 87.2 C 272.392 87.2 272 87 271.919 86.756 C 271.826 86.478 271.571 86.553 271.236 86.956 M 137.642 95.8 C 136.924 97.328 136.62 97.6 135.631 97.6 C 132.974 97.6 132.623 98.285 134.38 100.041 C 135.463 101.125 135.54 101.386 135.321 103.234 L 135.083 105.246 L 136.906 104.361 C 138.787 103.447 139.43 103.539 142.16 105.113 C 142.368 105.234 142.401 104.429 142.238 103.202 C 141.971 101.186 142.02 101.017 143.251 99.747 C 144.735 98.216 144.617 97.939 142.342 97.626 C 140.9 97.428 140.596 97.194 139.85 95.711 C 138.785 93.595 138.676 93.6 137.642 95.8 M 168.315 95.8 C 167.564 97.345 167.268 97.601 166.22 97.606 C 163.979 97.617 163.707 98.16 165.13 99.781 C 166.562 101.413 166.539 101.322 166.012 103.16 C 165.471 105.045 165.844 105.371 167.458 104.419 C 168.923 103.554 169.991 103.387 170.62 103.924 C 170.829 104.102 171.501 104.461 172.113 104.722 L 173.227 105.195 L 172.959 103.173 C 172.705 101.264 172.764 101.075 174.018 99.782 C 175.553 98.197 175.506 98.079 173.171 97.68 C 171.632 97.417 171.337 97.188 170.616 95.692 C 169.594 93.571 169.393 93.581 168.315 95.8 M 111.722 99.202 C 111.019 99.861 110.304 100.4 110.134 100.4 C 109.687 100.4 108 102.442 108 102.983 C 108 103.234 108.823 103.841 109.83 104.33 L 111.66 105.219 L 111.399 103.109 C 111.153 101.121 111.208 100.933 112.369 99.825 C 113.564 98.685 113.915 97.998 113.3 98.002 C 113.135 98.003 112.425 98.543 111.722 99.202 M 151.191 107.917 C 150.304 109.592 150.016 109.818 148.445 110.082 C 146.093 110.477 146.044 110.595 147.586 112.185 C 148.833 113.472 148.901 113.685 148.677 115.579 C 148.402 117.901 148.381 117.887 150.451 116.723 L 152.012 115.846 L 153.816 116.723 C 154.809 117.205 155.68 117.6 155.752 117.6 C 155.824 117.6 155.795 116.688 155.688 115.574 C 155.508 113.703 155.594 113.444 156.811 112.189 L 158.129 110.829 L 157.038 110.415 C 156.439 110.187 155.523 110 155.005 110 C 154.267 110 153.856 109.568 153.122 108.023 L 152.182 106.047 L 151.191 107.917 M 120.361 108.03 C 119.516 109.561 119.178 109.816 117.643 110.078 C 115.269 110.483 115.234 110.592 116.923 112.321 C 118.293 113.725 118.367 113.922 117.997 115.211 C 117.231 117.88 117.387 118.063 119.444 116.913 L 121.287 115.883 L 123.064 116.746 L 124.84 117.609 L 124.748 115.598 C 124.666 113.797 124.797 113.441 126.001 112.199 C 127.55 110.601 127.476 110.415 125.18 110.107 C 123.85 109.928 123.358 109.633 122.847 108.71 C 121.428 106.143 121.405 106.137 120.361 108.03 M 182.529 106.9 C 182.353 107.175 181.917 107.939 181.559 108.597 C 181.051 109.531 180.533 109.858 179.199 110.085 C 176.897 110.478 176.849 110.6 178.386 112.185 C 179.633 113.472 179.701 113.685 179.477 115.579 C 179.203 117.896 179.185 117.884 181.217 116.742 L 182.743 115.885 L 184.615 116.765 C 186.823 117.803 186.906 117.766 186.393 115.976 C 185.824 113.993 185.859 113.868 187.421 112.259 L 188.842 110.796 L 187.795 110.398 C 187.219 110.179 186.342 110 185.845 110 C 185.174 110 184.71 109.536 184.043 108.2 C 183.057 106.226 182.993 106.171 182.529 106.9 M 107.006 122.105 C 106.027 124.196 105.771 124.386 103.924 124.394 C 101.91 124.402 101.793 124.842 103.39 126.391 C 104.663 127.624 104.735 127.832 104.519 129.654 C 104.255 131.881 104.567 132.056 106.58 130.813 L 107.854 130.025 L 109.769 131.045 L 111.684 132.064 L 111.399 129.995 C 111.13 128.034 111.182 127.856 112.402 126.598 C 113.926 125.026 113.708 124.4 111.64 124.4 C 110.236 124.4 110.049 124.256 109.039 122.4 C 107.739 120.012 107.97 120.045 107.006 122.105 M 137.985 121.9 C 136.981 123.907 136.345 124.4 134.762 124.4 C 132.703 124.4 132.585 124.835 134.219 126.418 C 135.527 127.686 135.591 127.872 135.351 129.681 C 135.073 131.784 135.526 132.145 137.024 131.013 C 138.118 130.185 139.321 130.262 141.032 131.272 L 142.51 132.144 L 142.232 129.914 C 141.963 127.768 142.001 127.64 143.23 126.491 C 144.768 125.053 144.5 124.4 142.371 124.4 C 140.893 124.4 140.732 124.282 139.915 122.6 C 138.892 120.495 138.719 120.432 137.985 121.9 M 168.324 122.5 C 167.665 123.696 167.094 124.233 166.394 124.312 C 163.36 124.654 163.334 124.693 164.992 126.392 C 166.544 127.982 166.572 128.146 165.754 130.9 C 165.497 131.765 166.207 131.8 167.746 130.998 C 169.179 130.25 170.375 130.255 171.376 131.013 C 172.835 132.116 173.25 131.775 172.981 129.7 C 172.753 127.949 172.833 127.699 174 126.515 C 175.518 124.974 175.293 124.4 173.171 124.4 C 171.693 124.4 171.532 124.282 170.715 122.6 C 169.639 120.385 169.492 120.379 168.324 122.5 M 255.5 128.3 L 198.4 128.403 L 198.4 138.201 L 198.4 148 L 261 148 C 312.113 148 323.6 147.905 323.6 147.48 C 323.6 146.744 322.659 144.807 322.3 144.803 C 322.135 144.801 321.994 144.575 321.986 144.3 C 321.979 144.025 321.625 143.08 321.2 142.2 C 320.775 141.32 320.421 140.375 320.414 140.1 C 320.406 139.825 320.234 139.6 320.032 139.6 C 319.829 139.6 319.545 139.06 319.4 138.4 C 319.255 137.74 318.971 137.2 318.768 137.2 C 318.566 137.2 318.4 136.93 318.4 136.6 C 318.4 136.27 318.22 136 318 136 C 317.78 136 317.629 135.865 317.664 135.7 C 317.76 135.246 317.112 133.868 316.522 133.271 C 316.235 132.981 316 132.486 316 132.171 C 316 131.857 315.82 131.6 315.6 131.6 C 315.38 131.6 315.2 131.343 315.2 131.029 C 315.2 130.714 314.965 130.219 314.678 129.929 C 314.39 129.638 314.036 129.085 313.89 128.7 C 313.744 128.315 313.394 128.044 313.113 128.099 C 312.831 128.153 286.905 128.243 255.5 128.3 M 151.193 135.12 C 150.269 136.87 150.054 137.028 148.084 137.406 L 145.968 137.812 L 147.422 139.206 C 148.811 140.538 148.867 140.693 148.667 142.7 C 148.433 145.052 148.511 145.119 150.2 144 C 151.711 142.999 152.243 143.002 154.149 144.024 C 156 145.016 155.967 145.044 155.621 142.8 C 155.357 141.088 155.422 140.917 156.955 139.3 C 158.506 137.664 158.53 137.6 157.583 137.598 C 155.144 137.592 153.825 136.851 152.993 135.018 L 152.186 133.24 L 151.193 135.12 M 89.525 135.3 C 88.683 136.831 88.385 137.04 86.518 137.4 L 84.446 137.8 L 85.323 138.615 C 87.533 140.67 87.683 141.005 87.2 142.801 C 86.629 144.92 86.765 145.035 88.651 144.024 C 89.497 143.571 90.373 143.2 90.6 143.2 C 90.827 143.2 91.703 143.571 92.549 144.024 C 94.441 145.038 94.621 144.882 94.066 142.714 C 93.633 141.024 93.649 140.978 95.216 139.403 L 96.805 137.807 L 94.726 137.403 C 92.827 137.035 92.574 136.854 91.823 135.319 C 90.794 133.217 90.671 133.216 89.525 135.3 M 120.762 134.428 C 120.463 134.963 120.031 135.76 119.801 136.2 C 119.518 136.741 118.704 137.131 117.289 137.403 L 115.195 137.807 L 116.784 139.403 C 118.351 140.978 118.367 141.024 117.934 142.714 C 117.379 144.882 117.559 145.038 119.451 144.024 C 120.297 143.571 121.173 143.2 121.4 143.2 C 121.627 143.2 122.503 143.571 123.349 144.024 C 125.213 145.023 125.183 145.049 124.822 142.713 C 124.544 140.909 124.597 140.756 126.035 139.26 L 127.539 137.695 L 125.541 137.43 C 123.861 137.207 123.436 136.972 122.871 135.952 C 121.478 133.436 121.363 133.353 120.762 134.428 M 181.783 135.3 C 181.033 136.864 180.799 137.033 178.868 137.406 L 176.768 137.812 L 178.22 139.206 C 179.624 140.553 179.665 140.672 179.429 142.736 C 179.294 143.911 179.323 144.801 179.492 144.715 C 182.62 143.119 182.885 143.082 184.731 143.979 C 186.808 144.988 187.044 144.875 186.446 143.161 C 185.789 141.274 185.85 141.073 187.624 139.317 L 189.247 137.709 L 187.243 137.443 C 185.238 137.177 184.205 136.315 183.478 134.3 C 183.085 133.211 182.668 133.458 181.783 135.3 M 76.154 148.8 C 76.013 149.68 75.743 150.4 75.554 150.4 C 75.364 150.4 75.094 151.12 74.954 152 C 74.813 152.88 74.552 153.6 74.373 153.6 C 74.195 153.6 73.928 154.41 73.779 155.4 C 73.631 156.39 73.35 157.2 73.155 157.2 C 72.96 157.2 72.8 157.56 72.8 158 C 72.8 159.007 72.821 159.005 75.215 157.793 L 77.203 156.785 L 78.785 157.593 C 81.003 158.724 81.146 158.648 80.674 156.589 C 80.267 154.807 80.285 154.751 81.798 153.202 C 83.436 151.524 83.465 151.581 80.668 150.947 C 79.587 150.702 78.94 150.251 78.468 149.412 C 76.991 146.786 76.497 146.655 76.154 148.8 M 107.012 148.878 C 106.193 150.561 105.137 151.2 103.174 151.2 C 101.651 151.2 101.694 151.593 103.382 153.129 C 104.696 154.324 104.752 154.486 104.526 156.393 C 104.256 158.677 104.271 158.686 106.416 157.592 L 108 156.784 L 109.584 157.592 C 111.691 158.667 111.665 158.683 111.371 156.466 C 111.124 154.607 111.174 154.475 112.645 153.087 C 114.287 151.538 114.311 151.579 111.402 150.947 C 110.101 150.665 109.675 150.327 109.113 149.131 C 108.149 147.079 107.901 147.05 107.012 148.878 M 137.782 148.84 C 137.007 150.559 135.973 151.2 133.974 151.2 C 132.455 151.2 132.494 151.547 134.203 153.203 C 135.528 154.488 135.592 154.669 135.351 156.481 C 135.061 158.675 135.076 158.684 137.24 157.579 L 138.849 156.759 L 140.67 157.777 L 142.492 158.795 L 142.218 156.606 C 141.952 154.475 141.983 154.378 143.414 152.909 C 144.842 151.443 144.857 151.397 143.942 151.292 C 140.684 150.919 140.536 150.837 139.775 148.993 C 138.868 146.792 138.711 146.78 137.782 148.84 M 168.288 149.167 C 167.565 150.735 166.771 151.184 164.7 151.195 C 163.264 151.202 163.31 151.469 165.055 153.257 C 166.474 154.71 166.5 154.79 166.076 156.461 C 165.519 158.655 165.679 158.769 167.77 157.66 L 169.497 156.743 L 171.043 157.572 C 173.175 158.715 173.238 158.673 172.966 156.3 C 172.739 154.33 172.801 154.127 173.962 153.025 C 175.487 151.578 175.515 151.202 174.1 151.195 C 172.051 151.184 171.299 150.751 170.584 149.165 C 169.701 147.206 169.191 147.206 168.288 149.167 M 151.143 162.28 C 150.246 164.028 150.016 164.211 148.579 164.327 C 146.296 164.51 146.08 164.972 147.575 166.484 C 148.789 167.712 148.862 167.94 148.668 169.893 L 148.459 171.986 L 150.014 171.193 C 151.877 170.242 152.359 170.218 153.854 170.998 C 155.63 171.924 155.812 171.777 155.658 169.548 C 155.526 167.64 155.609 167.417 156.848 166.359 C 158.407 165.029 158.14 164.512 155.8 164.327 C 154.346 164.212 154.106 164.025 153.164 162.28 L 152.129 160.359 L 151.143 162.28 M 89.421 162.6 C 88.521 164.136 88.178 164.401 87.083 164.406 C 84.717 164.417 84.48 164.965 86.114 166.646 C 87.592 168.169 87.627 168.35 86.936 170.9 C 86.702 171.763 87.413 171.797 88.946 170.998 C 89.576 170.669 90.32 170.4 90.6 170.4 C 90.88 170.4 91.624 170.669 92.254 170.998 C 94.362 172.097 94.85 171.635 93.984 169.359 C 93.611 168.377 93.721 168.11 95.058 166.74 C 96.746 165.012 96.66 164.743 94.319 164.426 C 92.844 164.226 92.557 164.006 91.826 162.519 C 90.789 160.408 90.704 160.411 89.421 162.6 M 120.2 162.508 C 119.484 164.022 119.222 164.224 117.707 164.426 C 115.482 164.723 115.275 165.007 116.474 166.118 C 118.045 167.574 118.347 168.358 117.925 169.886 C 117.386 171.838 117.605 172.032 119.371 171.168 C 121.09 170.328 122.035 170.208 122.62 170.755 C 124.113 172.15 124.914 171.725 124.714 169.642 C 124.527 167.698 124.585 167.541 125.866 166.52 C 127.568 165.163 127.4 164.652 125.17 164.4 C 123.598 164.222 123.312 164.026 122.59 162.629 C 121.503 160.529 121.144 160.511 120.2 162.508 M 181.782 162.5 C 181.049 164.026 180.804 164.213 179.383 164.327 C 177.056 164.513 176.841 164.992 178.376 166.575 C 179.587 167.825 179.691 168.118 179.504 169.776 C 179.281 171.753 179.649 172.052 181.024 171.013 C 182.103 170.197 183.326 170.26 185.035 171.22 C 186.836 172.231 186.834 172.234 186.288 169.849 L 185.842 167.9 L 187.367 166.502 C 189.057 164.954 188.842 164.417 186.527 164.406 C 185.266 164.4 184.135 163.323 183.478 161.5 C 183.085 160.411 182.668 160.657 181.782 162.5 M 330.313 168.9 C 330.04 169.563 326.515 169.6 264.213 169.6 L 198.4 169.6 L 198.4 179.4 L 198.4 189.2 L 266 189.2 L 333.6 189.2 L 333.6 186 C 333.6 184.133 333.433 182.8 333.2 182.8 C 332.98 182.8 332.8 181.81 332.8 180.6 C 332.8 179.39 332.641 178.4 332.447 178.4 C 332.253 178.4 331.967 176.87 331.811 175 C 331.656 173.13 331.375 171.6 331.187 171.6 C 330.999 171.6 330.791 170.835 330.723 169.9 C 330.639 168.746 330.508 168.425 330.313 168.9 M 76.184 175.692 C 75.463 177.188 75.168 177.417 73.629 177.68 C 71.294 178.079 71.247 178.197 72.783 179.783 C 74.136 181.178 74.31 182.635 73.395 184.904 C 73.158 185.492 73.45 185.432 75.17 184.54 L 77.228 183.472 L 78.958 184.336 C 81.206 185.459 81.126 185.515 80.646 183.171 L 80.23 181.142 L 81.815 179.804 L 83.4 178.466 L 82.274 178.033 C 81.655 177.795 80.707 177.6 80.169 177.6 C 79.405 177.6 78.998 177.205 78.315 175.8 C 77.244 173.595 77.196 173.592 76.184 175.692 M 106.902 175.764 C 106.117 177.381 105.938 177.505 104.032 177.758 C 101.617 178.078 101.639 178.012 103.385 179.758 C 104.697 181.07 104.757 181.249 104.527 183.183 L 104.286 185.224 L 105.316 184.832 C 105.883 184.616 106.719 184.208 107.173 183.924 C 107.849 183.502 108.151 183.502 108.827 183.924 C 109.281 184.208 110.104 184.612 110.656 184.821 L 111.658 185.202 L 111.398 183.101 C 111.153 181.122 111.209 180.932 112.369 179.825 C 113.986 178.282 113.934 178.099 111.784 177.777 C 110.194 177.538 109.871 177.314 109.189 175.979 C 108.096 173.836 107.85 173.813 106.902 175.764 M 137.668 175.745 C 136.938 177.299 136.662 177.52 135.162 177.76 C 132.718 178.15 132.641 178.312 134.178 179.805 C 135.498 181.087 135.556 181.256 135.327 183.189 L 135.086 185.224 L 136.116 184.832 C 136.683 184.616 137.519 184.208 137.973 183.924 C 138.649 183.502 138.951 183.502 139.627 183.924 C 140.081 184.208 140.915 184.616 141.48 184.83 L 142.506 185.22 L 142.243 183.236 C 141.999 181.401 142.075 181.143 143.243 179.812 C 144.711 178.14 144.728 178.183 142.45 177.737 C 140.928 177.439 140.588 177.174 139.85 175.708 C 138.788 173.602 138.674 173.604 137.668 175.745 M 168.4 175.8 C 167.735 177.174 167.307 177.6 166.59 177.6 C 166.074 177.6 165.161 177.787 164.56 178.015 L 163.467 178.431 L 165.001 180.001 C 166.52 181.557 166.53 181.588 166.04 183.225 C 165.406 185.341 165.526 185.42 167.746 184.341 L 169.588 183.446 L 171.149 184.323 C 173.248 185.503 173.266 185.491 172.959 183.176 C 172.705 181.263 172.764 181.075 174.018 179.782 C 175.559 178.192 175.558 178.189 173.223 177.732 C 171.668 177.427 171.342 177.174 170.623 175.71 C 169.586 173.603 169.461 173.608 168.4 175.8 M 120.379 189.357 C 119.546 191.024 119.3 191.21 117.351 191.646 L 115.229 192.121 L 116.803 193.603 C 118.278 194.992 118.353 195.17 117.989 196.44 C 117.212 199.147 117.367 199.332 119.506 198.248 C 121.398 197.289 121.421 197.287 122.806 198.024 C 124.778 199.074 124.85 199.029 124.748 196.793 C 124.666 195.003 124.8 194.639 125.98 193.421 L 127.303 192.056 L 125.752 191.775 C 123.637 191.393 122.904 190.961 122.573 189.9 C 121.837 187.542 121.346 187.421 120.379 189.357 M 151.239 189.319 C 150.412 191.027 150.2 191.187 148.16 191.644 L 145.969 192.134 L 147.439 193.64 C 148.851 195.086 148.899 195.228 148.642 197.166 L 148.374 199.186 L 150.267 198.226 L 152.159 197.267 L 154.07 198.235 L 155.981 199.204 L 155.765 197.902 C 155.646 197.186 155.484 196.271 155.404 195.869 C 155.32 195.447 155.843 194.491 156.638 193.611 L 158.017 192.084 L 155.994 191.599 C 154.175 191.162 153.878 190.931 153.049 189.299 L 152.127 187.485 L 151.239 189.319 M 182.009 189.292 C 181.106 191.213 180.883 191.366 178.32 191.819 L 176.841 192.081 L 178.262 193.541 C 179.586 194.9 179.668 195.13 179.461 196.9 C 179.21 199.036 179.382 199.134 181.401 198 L 182.825 197.199 L 184.869 198.235 L 186.912 199.27 L 186.646 198.335 C 185.808 195.381 185.835 195.202 187.379 193.622 L 188.868 192.096 L 186.82 191.605 C 184.964 191.159 184.683 190.94 183.831 189.264 L 182.891 187.414 L 182.009 189.292 M 89.615 189.571 C 88.796 191.176 88.487 191.365 85.938 191.816 L 84.476 192.075 L 86.07 193.622 C 87.127 194.647 87.596 195.41 87.462 195.884 C 87.351 196.278 87.139 197.197 86.992 197.927 L 86.724 199.255 L 88.346 198.427 C 90.376 197.392 91.025 197.393 92.963 198.432 L 94.515 199.263 L 94.291 197.932 C 94.169 197.199 93.943 196.284 93.79 195.897 C 93.591 195.393 93.96 194.746 95.094 193.612 L 96.676 192.03 L 94.907 191.765 C 93.032 191.484 91.725 190.436 91.341 188.908 C 91.012 187.598 90.526 187.784 89.615 189.571 M 66.589 211.5 C 66.745 212.105 66.964 214.085 67.077 215.9 C 67.19 217.715 67.425 219.2 67.599 219.2 C 67.773 219.2 68.043 220.82 68.2 222.8 C 68.357 224.78 68.646 226.4 68.842 226.4 C 69.039 226.4 69.2 227.015 69.2 227.767 C 69.2 228.519 69.309 229.419 69.443 229.767 C 69.664 230.342 81.561 230.4 200.243 230.4 L 330.8 230.4 L 330.8 229.4 C 330.8 228.85 330.964 228.4 331.164 228.4 C 331.364 228.4 331.656 226.87 331.811 225 C 331.967 223.13 332.253 221.6 332.447 221.6 C 332.641 221.6 332.8 220.61 332.8 219.4 C 332.8 218.19 332.956 217.2 333.146 217.2 C 333.336 217.2 333.523 215.821 333.562 214.135 C 333.601 212.449 333.726 210.919 333.84 210.735 C 333.954 210.551 273.806 210.4 200.177 210.4 L 66.307 210.4 L 66.589 211.5 M 76.533 252.2 C 76.533 252.53 76.683 252.8 76.867 252.8 C 77.05 252.8 77.2 253.07 77.2 253.4 C 77.2 253.73 77.357 254 77.549 254 C 77.741 254 78.01 254.705 78.148 255.566 C 78.286 256.428 78.534 257.193 78.699 257.266 C 79.081 257.436 80.8 260.936 80.8 261.544 C 80.8 261.795 80.98 262 81.2 262 C 81.42 262 81.6 262.334 81.6 262.742 C 81.6 263.149 82.05 263.969 82.6 264.562 C 83.15 265.156 83.6 265.732 83.6 265.843 C 83.6 266.408 85.268 269.6 85.563 269.6 C 85.899 269.6 86.529 271.104 86.443 271.7 C 86.381 272.13 86.97 272.07 87.443 271.597 C 87.712 271.328 125.415 271.229 200.923 271.297 C 291.173 271.379 314 271.299 314 270.9 C 314 270.625 314.177 270.4 314.392 270.4 C 314.608 270.4 314.898 269.95 315.036 269.4 C 315.174 268.85 315.447 268.4 315.643 268.4 C 315.84 268.4 316 268.143 316 267.829 C 316 267.514 316.235 267.019 316.522 266.729 C 317.112 266.132 317.76 264.754 317.664 264.3 C 317.629 264.135 317.78 264 318 264 C 318.22 264 318.4 263.73 318.4 263.4 C 318.4 263.07 318.566 262.8 318.768 262.8 C 318.971 262.8 319.255 262.26 319.4 261.6 C 319.545 260.94 319.829 260.4 320.032 260.4 C 320.234 260.4 320.406 260.175 320.414 259.9 C 320.421 259.625 320.775 258.68 321.2 257.8 C 321.625 256.92 321.979 255.975 321.986 255.7 C 321.994 255.425 322.159 255.2 322.353 255.2 C 322.7 255.2 322.845 254.903 323.569 252.7 L 323.931 251.6 L 200.232 251.6 C 90.544 251.6 76.533 251.668 76.533 252.2 M 104.059 292.755 C 103.583 293.057 109.483 299.6 110.231 299.6 C 110.506 299.6 111.086 300.102 116.343 304.9 C 117.007 305.505 117.714 306 117.916 306 C 118.118 306 118.732 306.405 119.28 306.9 C 120.931 308.391 122.554 309.6 122.904 309.6 C 123.085 309.6 123.451 309.783 123.717 310.007 C 125.578 311.577 126.167 312 126.49 312 C 126.692 312 127.133 312.276 127.471 312.614 C 127.911 313.054 128.228 313.109 128.591 312.807 C 128.942 312.516 151.293 312.42 201.311 312.494 C 241.028 312.552 273.448 312.478 273.356 312.329 C 273.264 312.18 273.596 311.93 274.094 311.775 C 274.592 311.619 275.09 311.366 275.2 311.211 C 275.31 311.057 276.229 310.45 277.241 309.862 C 278.254 309.274 279.407 308.434 279.803 307.996 C 280.2 307.558 280.777 307.2 281.086 307.2 C 281.394 307.2 281.544 307.033 281.418 306.829 C 281.292 306.625 281.551 306.343 281.994 306.202 C 282.437 306.061 282.8 305.778 282.8 305.573 C 282.8 305.368 283.056 305.2 283.369 305.2 C 283.997 305.2 286.4 302.956 286.4 302.369 C 286.4 302.166 286.657 302 286.972 302 C 287.287 302 288.952 300.648 290.672 298.995 C 292.392 297.343 294.392 295.43 295.117 294.745 C 295.841 294.06 296.366 293.297 296.283 293.05 C 296.101 292.502 104.92 292.208 104.059 292.755" stroke-linecap="round" />
</g>
		<g transform="matrix(1 0 0 1 8.62 10.3)"  >
<path style="stroke: none; stroke-width: 1; stroke-dasharray: none; stroke-linecap: butt; stroke-dashoffset: 0; stroke-linejoin: miter; stroke-miterlimit: 4; fill: rgb(219,116,116); fill-rule: evenodd; opacity: 1;" vector-effect="non-scaling-stroke"  transform=" translate(-208.77, -210.25)" d="M 234.9 86.7 C 211.032 86.768 198.4 86.942 198.4 87.202 C 198.4 87.931 270.594 87.73 271.2 87 C 271.474 86.67 271.631 86.444 271.549 86.498 C 271.467 86.552 254.975 86.643 234.9 86.7 M 222.931 107.5 C 236.533 107.558 258.673 107.558 272.131 107.5 C 285.589 107.442 274.46 107.394 247.4 107.394 C 220.34 107.394 209.329 107.442 222.931 107.5 M 226.931 128.3 C 242.734 128.358 268.474 128.358 284.131 128.3 C 299.789 128.242 286.86 128.195 255.4 128.195 C 223.94 128.195 211.129 128.242 226.931 128.3 M 198.4 148.4 C 198.4 148.942 322.761 148.942 323.6 148.4 C 323.989 148.149 302.057 148.01 261.3 148.006 C 219.629 148.002 198.4 148.135 198.4 148.4 M 198.4 169.3 C 198.4 169.465 227.999 169.6 264.176 169.6 C 300.353 169.6 330.036 169.465 330.138 169.3 C 330.24 169.135 300.641 169 264.362 169 C 228.083 169 198.4 169.135 198.4 169.3 M 232.1 189.5 C 250.745 189.557 281.255 189.557 299.9 189.5 C 318.545 189.442 303.29 189.395 266 189.395 C 228.71 189.395 213.455 189.442 232.1 189.5 M 132 210.002 C 88.511 210.135 111.636 210.204 200.2 210.205 C 273.9 210.206 323.22 210.16 309.8 210.103 C 249.088 209.847 192.828 209.815 132 210.002 M 134.932 230.7 C 170.975 230.756 229.835 230.756 265.732 230.7 C 301.63 230.644 272.14 230.598 200.2 230.598 C 128.26 230.598 98.89 230.644 134.932 230.7 M 138.332 251.5 C 172.505 251.556 228.305 251.556 262.332 251.5 C 296.36 251.444 268.4 251.397 200.2 251.397 C 132 251.397 104.16 251.444 138.332 251.5 M 87.4 271.6 C 87.235 271.866 125.028 271.998 200.476 271.994 C 273.787 271.99 313.588 271.851 313.2 271.6 C 312.36 271.057 87.736 271.057 87.4 271.6 M 103.6 292.3 C 103.6 292.465 147.16 292.6 200.4 292.6 C 253.64 292.6 297.2 292.465 297.2 292.3 C 297.2 292.135 253.64 292 200.4 292 C 147.16 292 103.6 292.135 103.6 292.3 M 128.584 312.826 C 128.189 313.465 128.742 313.818 129.287 313.273 C 129.941 312.619 270.05 312.585 271.273 313.239 C 271.92 313.585 272.055 313.564 271.913 313.139 C 271.678 312.434 129.019 312.122 128.584 312.826 M 196.4 333.6 C 196.4 333.84 198.008 334 200.424 334 C 203.004 334 204.359 333.857 204.2 333.6 C 204.063 333.379 202.263 333.2 200.176 333.2 C 197.925 333.2 196.4 333.362 196.4 333.6" stroke-linecap="round" />
</g>
		<g transform="matrix(1 0 0 1 -65.5 -60.89)"  >
<path style="stroke: none; stroke-width: 1; stroke-dasharray: none; stroke-linecap: butt; stroke-dashoffset: 0; stroke-linejoin: miter; stroke-miterlimit: 4; fill: rgb(140,140,204); fill-rule: evenodd; opacity: 1;" vector-effect="non-scaling-stroke"  transform=" translate(-134.65, -139.06)" d="M 151.725 78.89 C 151.511 79.171 151.037 80.055 150.67 80.856 C 150.095 82.113 149.743 82.367 148.102 82.709 C 146.608 83.02 146.457 83.114 147.4 83.147 C 149.683 83.227 150.381 82.792 151.264 80.741 L 152.107 78.78 L 153.046 80.741 C 154.003 82.741 154.698 83.184 156.9 83.195 C 158.338 83.202 158.292 83.453 156.5 85.378 C 155.365 86.597 155.29 86.747 156.191 85.995 C 159.264 83.429 159.271 83.307 156.361 82.661 C 154.471 82.241 154.176 82.027 153.415 80.516 C 152.354 78.407 152.204 78.263 151.725 78.89 M 181.651 80.483 C 180.906 81.989 180.569 82.255 178.901 82.652 L 177 83.105 L 178.518 83.152 C 180.11 83.202 182 81.853 182 80.667 C 182 79.116 183.088 79.22 183.818 80.841 C 184.611 82.599 185.663 83.224 187.726 83.162 C 188.811 83.129 188.707 83.055 187.026 82.662 C 185.329 82.265 184.936 81.979 184.226 80.628 C 183.106 78.496 182.647 78.47 181.651 80.483 M 145.6 83.378 C 145.6 83.566 146.241 84.341 147.024 85.102 C 148.404 86.443 148.439 86.549 148.177 88.642 C 147.909 90.79 148.913 91.835 149.826 90.357 C 150.009 90.061 149.827 90.001 149.277 90.176 C 148.501 90.422 148.466 90.317 148.664 88.318 C 148.868 86.256 148.831 86.158 147.237 84.619 C 146.337 83.749 145.6 83.191 145.6 83.378 M 176.4 83.488 C 176.4 83.683 177.042 84.463 177.826 85.222 C 179.223 86.572 179.246 86.647 178.986 88.903 C 178.691 91.468 178.754 91.493 181.47 89.901 C 182.732 89.161 182.754 89.163 184.732 90.166 C 186.344 90.982 186.766 91.067 186.942 90.608 C 187.078 90.252 186.963 90.116 186.634 90.242 C 186.345 90.353 185.364 90.056 184.454 89.582 L 182.8 88.719 L 181.188 89.56 C 180.301 90.022 179.504 90.4 179.417 90.4 C 179.329 90.4 179.351 89.455 179.466 88.3 C 179.668 86.255 179.631 86.16 178.037 84.666 C 177.137 83.823 176.4 83.292 176.4 83.488 M 187.635 84.964 C 185.943 86.688 185.914 86.763 186.345 88.264 L 186.786 89.8 L 186.603 88.205 C 186.437 86.762 186.579 86.448 188.093 84.905 C 189.013 83.967 189.677 83.2 189.567 83.2 C 189.457 83.2 188.587 83.994 187.635 84.964 M 198.175 97.2 C 198.175 103.03 198.231 105.415 198.299 102.5 C 198.367 99.585 198.367 94.815 198.299 91.9 C 198.231 88.985 198.175 91.37 198.175 97.2 M 155.736 88.926 C 155.834 90.291 155.758 90.431 155.023 90.246 C 154.215 90.044 154.214 90.051 154.979 90.621 C 156.121 91.475 156.579 90.761 156.061 88.933 L 155.627 87.4 L 155.736 88.926 M 150.979 89.4 C 150.242 89.972 150.256 89.985 151.233 89.638 C 151.845 89.42 152.498 89.417 152.833 89.629 C 153.583 90.103 154.283 90.115 153.78 89.645 C 153.001 88.917 151.743 88.808 150.979 89.4 M 124.945 89.8 C 125.071 90.13 125.016 90.4 124.821 90.4 C 124.626 90.4 124.376 90.175 124.265 89.9 C 124.113 89.523 124.055 89.52 124.032 89.886 C 124.014 90.153 124.36 90.565 124.8 90.8 C 125.502 91.176 125.6 91.104 125.6 90.214 C 125.6 89.656 125.401 89.2 125.157 89.2 C 124.914 89.2 124.818 89.47 124.945 89.8 M 168.214 95.173 C 167.442 96.695 166.961 97.184 166.107 97.313 C 165.003 97.48 165.003 97.48 166.22 97.54 C 167.292 97.593 167.547 97.382 168.315 95.8 C 169.35 93.67 169.769 93.561 170.363 95.265 C 170.605 95.961 170.901 96.433 171.019 96.314 C 171.3 96.033 169.948 93.2 169.533 93.2 C 169.357 93.2 168.764 94.088 168.214 95.173 M 137.35 95.311 C 136.734 96.535 136.183 97.07 135.35 97.253 L 134.2 97.505 L 135.498 97.553 C 136.661 97.595 136.884 97.413 137.642 95.8 C 138.676 93.6 138.786 93.595 139.848 95.711 C 140.539 97.086 140.91 97.407 141.848 97.437 C 142.864 97.47 142.878 97.456 141.97 97.317 C 141.217 97.202 140.707 96.681 140.075 95.38 C 139.002 93.171 138.435 93.156 137.35 95.311 M 171.325 97.078 C 171.465 97.306 172.32 97.591 173.223 97.712 C 175.47 98.014 175.544 98.207 174.018 99.782 C 172.76 101.079 172.705 101.259 172.962 103.199 C 173.221 105.15 173.197 105.226 172.443 104.823 C 171.294 104.208 170.872 104.328 171.776 105.013 C 173.305 106.169 173.661 105.792 173.388 103.3 C 173.142 101.047 173.166 100.973 174.569 99.668 C 176.413 97.95 176.375 97.747 174.149 97.413 C 173.131 97.261 172.021 97.03 171.683 96.9 C 171.317 96.759 171.172 96.831 171.325 97.078 M 113.6 97.925 C 113.6 98.324 113.046 99.179 112.369 99.825 C 111.208 100.933 111.153 101.121 111.399 103.109 L 111.66 105.219 L 109.83 104.33 C 108.823 103.841 108 103.296 108 103.12 C 108 102.944 107.82 102.8 107.6 102.8 C 106.637 102.8 107.361 103.514 109.34 104.516 C 112.153 105.941 112.147 105.943 111.89 103.446 C 111.678 101.394 111.732 101.229 113.034 99.967 C 114.333 98.708 114.86 97.2 114 97.2 C 113.78 97.2 113.6 97.526 113.6 97.925 M 132.4 98.052 C 132.4 98.3 133.017 99.186 133.771 100.02 C 134.56 100.894 135.08 101.848 134.996 102.269 C 134.251 106.016 134.363 106.162 136.937 104.783 C 137.863 104.286 138.783 104.068 139.281 104.226 C 139.828 104.399 140.009 104.338 139.826 104.043 C 139.423 103.39 138.566 103.499 136.724 104.439 L 135.079 105.278 L 135.32 103.25 C 135.541 101.383 135.465 101.127 134.38 100.041 C 133.102 98.763 132.919 98.18 133.7 97.865 C 133.975 97.754 133.795 97.649 133.3 97.632 C 132.805 97.614 132.4 97.803 132.4 98.052 M 143.995 97.989 C 144.49 98.301 144.366 98.597 143.262 99.737 C 142.307 100.722 141.983 101.374 142.112 102.054 C 142.286 102.976 142.292 102.973 142.346 101.97 C 142.38 101.323 142.922 100.504 143.8 99.772 C 145.407 98.432 145.6 97.597 144.3 97.606 C 143.582 97.611 143.52 97.688 143.995 97.989 M 163.2 98.122 C 163.2 98.408 163.815 99.239 164.567 99.968 C 165.73 101.096 165.91 101.51 165.773 102.747 C 165.636 103.976 165.666 104.046 165.966 103.2 C 166.536 101.59 166.466 101.303 165.13 99.781 C 164.098 98.606 163.966 98.266 164.43 97.973 C 164.867 97.696 164.791 97.611 164.1 97.606 C 163.605 97.603 163.2 97.835 163.2 98.122 M 142.46 104.114 C 142.406 105.114 142.315 105.183 141.566 104.782 C 141.107 104.536 140.634 104.433 140.514 104.553 C 140.394 104.672 140.771 104.986 141.35 105.25 C 142.638 105.837 142.911 105.61 142.69 104.137 L 142.52 103 L 142.46 104.114 M 167.446 104.396 C 166.812 104.802 166.047 105.039 165.746 104.924 C 165.446 104.809 165.2 104.914 165.2 105.157 C 165.2 105.819 166.033 105.696 167.737 104.783 C 168.663 104.286 169.583 104.068 170.081 104.226 C 170.628 104.399 170.809 104.338 170.626 104.043 C 170.224 103.392 168.763 103.554 167.446 104.396 M 120.946 106.1 C 120.752 106.375 120.256 107.266 119.844 108.081 C 119.432 108.895 118.803 109.639 118.447 109.734 C 117.909 109.878 117.921 109.915 118.519 109.954 C 118.936 109.981 119.523 109.484 119.919 108.77 C 121.379 106.134 121.391 106.131 122.443 108.037 C 122.975 109.002 123.678 109.81 124.005 109.834 C 124.372 109.861 124.405 109.812 124.091 109.707 C 123.811 109.614 123.133 108.652 122.584 107.569 C 121.489 105.408 121.455 105.377 120.946 106.1 M 151.73 106.1 C 151.528 106.375 151.018 107.269 150.597 108.087 C 150.176 108.905 149.555 109.659 149.216 109.764 C 148.867 109.872 148.946 109.919 149.4 109.872 C 149.899 109.821 150.581 109.085 151.213 107.917 L 152.225 106.045 L 153.132 108.022 C 153.837 109.559 154.236 109.99 154.92 109.954 C 155.61 109.917 155.647 109.867 155.091 109.723 C 154.701 109.621 153.933 108.652 153.384 107.569 C 152.287 105.404 152.26 105.38 151.73 106.1 M 181.883 107.059 C 181.489 107.851 181.259 108.592 181.372 108.705 C 181.485 108.818 181.752 108.453 181.964 107.894 C 182.6 106.222 183.091 106.294 184.04 108.195 C 184.697 109.51 185.167 109.987 185.771 109.954 C 186.459 109.915 186.479 109.876 185.891 109.723 C 185.501 109.621 184.733 108.652 184.184 107.569 C 182.997 105.226 182.816 105.186 181.883 107.059 M 115.021 110.365 C 114.897 110.566 115.441 111.331 116.229 112.065 C 117.632 113.371 117.658 113.451 117.45 115.8 L 117.237 118.2 L 117.79 116 L 118.343 113.8 L 116.972 112.383 C 115.405 110.764 115.33 110.529 116.3 110.276 C 116.841 110.134 116.8 110.082 116.124 110.046 C 115.642 110.021 115.146 110.164 115.021 110.365 M 126.5 110.276 C 127.46 110.527 127.393 110.763 125.928 112.274 C 124.8 113.438 124.667 113.816 124.749 115.612 L 124.841 117.637 L 123.166 116.783 C 121.476 115.921 118.954 116.38 118.139 117.699 C 118.016 117.897 118.683 117.668 119.62 117.19 L 121.324 116.32 L 123.006 117.16 C 125.442 118.377 125.551 118.309 125.324 115.7 C 125.129 113.474 125.169 113.355 126.561 112.022 C 128.288 110.367 128.353 109.985 126.9 110.046 C 126.223 110.075 126.069 110.163 126.5 110.276 M 145.6 110.381 C 145.6 110.59 146.245 111.387 147.032 112.153 C 148.433 113.513 148.458 113.593 148.186 115.772 C 147.867 118.328 148.014 118.417 150.478 117.16 L 152.124 116.32 L 153.806 117.16 C 156.428 118.47 156.87 118.15 155.966 115.6 C 155.672 114.771 155.64 114.856 155.78 116.1 C 155.98 117.867 156.095 117.83 153.816 116.723 L 152.012 115.846 L 150.451 116.723 C 148.387 117.883 148.427 117.911 148.668 115.5 C 148.864 113.546 148.793 113.318 147.639 112.225 C 146.217 110.877 146.122 110.531 147.1 110.276 C 147.531 110.163 147.377 110.075 146.7 110.046 C 146.095 110.021 145.6 110.171 145.6 110.381 M 157.167 110.437 L 158.134 110.824 L 156.767 112.312 L 155.401 113.8 L 157.101 112.219 C 159.142 110.32 159.201 109.992 157.5 110.025 C 156.257 110.05 156.242 110.068 157.167 110.437 M 176.4 110.413 C 176.4 110.641 177.048 111.474 177.839 112.266 C 179.234 113.66 179.271 113.773 179.011 115.853 C 178.704 118.31 178.852 118.398 181.255 117.172 C 182.147 116.717 183.139 116.445 183.46 116.568 C 183.785 116.692 183.934 116.616 183.797 116.395 C 183.423 115.789 182.55 115.92 181.11 116.799 C 179.289 117.909 179.231 117.863 179.468 115.5 C 179.664 113.546 179.593 113.318 178.439 112.225 C 177.017 110.877 176.922 110.531 177.9 110.276 C 178.331 110.163 178.177 110.075 177.5 110.046 C 176.895 110.021 176.4 110.186 176.4 110.413 M 187.923 110.421 L 188.847 110.792 L 187.423 112.257 C 185.96 113.764 185.824 114.277 186.434 116 C 186.712 116.789 186.748 116.656 186.6 115.372 C 186.434 113.922 186.566 113.596 187.807 112.393 C 189.497 110.755 189.592 109.991 188.1 110.025 C 187.023 110.05 187.019 110.058 187.923 110.421 M 184.62 117.155 C 184.829 117.35 185.45 117.628 186 117.772 L 187 118.033 L 186 117.431 C 184.886 116.759 184.009 116.584 184.62 117.155 M 107.182 120.834 C 106.936 121.293 106.836 121.769 106.959 121.892 C 107.082 122.015 107.338 121.697 107.527 121.186 C 107.85 120.313 107.941 120.384 108.999 122.328 C 109.998 124.163 110.268 124.395 111.364 124.353 L 112.6 124.305 L 111.4 124.049 C 110.473 123.851 109.989 123.362 109.27 121.897 C 108.24 119.798 107.844 119.596 107.182 120.834 M 137.553 121.808 C 136.895 123.126 136.318 123.712 135.425 123.972 C 134.249 124.314 134.242 124.329 135.238 124.364 C 136.326 124.402 137.065 123.738 137.985 121.9 C 138.719 120.432 138.892 120.495 139.915 122.6 C 140.695 124.205 140.931 124.396 142.095 124.364 L 143.4 124.328 L 142.157 123.967 C 141.263 123.708 140.647 123.101 139.958 121.803 C 138.775 119.573 138.669 119.573 137.553 121.808 M 168.327 121.776 C 167.644 123.182 167.165 123.636 166.032 123.952 L 164.6 124.351 L 165.995 124.275 C 167.191 124.211 167.523 123.958 168.325 122.5 C 169.492 120.379 169.639 120.385 170.715 122.6 C 171.495 124.205 171.731 124.396 172.895 124.364 L 174.2 124.328 L 172.888 123.949 C 171.892 123.662 171.366 123.139 170.708 121.785 C 169.629 119.565 169.401 119.565 168.327 121.776 M 106.096 123.014 C 105.907 123.352 105.223 123.787 104.576 123.98 C 103.461 124.313 103.452 124.333 104.4 124.359 C 105.589 124.393 106.166 124.049 106.517 123.1 C 106.835 122.236 106.563 122.181 106.096 123.014 M 101.604 124.9 C 101.606 125.175 102.164 125.84 102.846 126.378 C 103.527 126.916 104.234 127.726 104.417 128.178 C 104.643 128.737 104.757 128.801 104.775 128.378 C 104.789 128.037 104.177 127.153 103.416 126.415 C 102.654 125.677 102.125 124.922 102.239 124.737 C 102.354 124.551 102.257 124.4 102.024 124.4 C 101.791 124.4 101.602 124.625 101.604 124.9 M 113.421 124.835 C 113.569 125.074 113.111 125.867 112.402 126.598 C 111.182 127.856 111.13 128.034 111.399 129.995 L 111.684 132.064 L 109.769 131.045 L 107.854 130.025 L 106.58 130.813 C 104.929 131.833 104.407 131.806 104.368 130.7 C 104.34 129.895 104.293 129.919 103.927 130.925 C 103.346 132.517 103.794 132.708 105.721 131.687 C 107.773 130.6 108.03 130.595 110 131.6 C 112.148 132.696 112.145 132.698 111.87 130.066 C 111.633 127.795 111.664 127.695 113.013 126.387 C 114.532 124.915 114.73 124.4 113.776 124.4 C 113.429 124.4 113.272 124.593 113.421 124.835 M 132.4 124.852 C 132.4 125.1 133.006 125.973 133.746 126.792 C 135.017 128.2 135.075 128.389 134.789 130.241 C 134.408 132.706 134.481 132.767 136.521 131.687 C 138.573 130.6 138.83 130.595 140.8 131.6 C 142.817 132.629 142.808 132.631 142.753 131.1 C 142.706 129.823 142.701 129.819 142.453 130.9 L 142.2 131.999 L 140.89 131.2 C 139.35 130.259 138.1 130.199 137.024 131.013 C 135.526 132.145 135.073 131.784 135.351 129.681 C 135.591 127.872 135.527 127.686 134.219 126.418 C 133.455 125.678 132.925 124.922 133.039 124.737 C 133.154 124.551 133.057 124.4 132.824 124.4 C 132.591 124.4 132.4 124.603 132.4 124.852 M 144.226 124.922 C 144.336 125.21 143.88 125.931 143.213 126.525 C 142.368 127.278 142.018 127.939 142.06 128.703 L 142.12 129.8 L 142.28 128.769 C 142.368 128.202 143.061 127.153 143.82 126.437 C 145.302 125.039 145.551 124.4 144.613 124.4 C 144.289 124.4 144.115 124.635 144.226 124.922 M 163.2 124.925 C 163.2 125.214 163.74 125.968 164.4 126.6 C 165.325 127.486 165.609 128.123 165.641 129.375 L 165.683 131 L 166.089 129.466 C 166.476 128.004 166.425 127.86 165.011 126.411 C 163.968 125.344 163.686 124.827 164.063 124.677 C 164.428 124.532 164.376 124.453 163.9 124.432 C 163.515 124.414 163.2 124.636 163.2 124.925 M 175.009 124.815 C 175.15 125.043 174.711 125.797 174.033 126.491 C 173.145 127.399 172.818 128.094 172.864 128.976 L 172.928 130.2 L 173.085 128.958 C 173.18 128.209 173.789 127.186 174.621 126.38 C 176.132 124.915 176.329 124.4 175.376 124.4 C 175.033 124.4 174.868 124.587 175.009 124.815 M 198.175 138.4 C 198.175 144.23 198.231 146.615 198.299 143.7 C 198.367 140.785 198.367 136.015 198.299 133.1 C 198.231 130.185 198.175 132.57 198.175 138.4 M 168.236 130.742 C 168.119 130.93 168.444 131.004 168.957 130.906 C 169.47 130.808 170.628 131.104 171.529 131.564 C 173.6 132.62 173.609 132.619 173.554 131.3 C 173.525 130.623 173.437 130.469 173.324 130.9 C 173.101 131.754 172.41 131.794 171.376 131.013 C 170.525 130.368 168.571 130.2 168.236 130.742 M 165.201 131.9 C 165.2 132.558 166.061 132.536 166.994 131.854 C 167.681 131.352 167.639 131.311 166.471 131.354 C 165.748 131.38 165.201 131.615 165.201 131.9 M 120.911 133.3 C 120.698 133.575 120.404 134.16 120.257 134.6 C 120.032 135.273 120.108 135.249 120.736 134.448 L 121.482 133.495 L 122.446 135.248 C 123.312 136.824 123.613 137.04 125.431 137.4 L 127.453 137.8 L 125.991 139.311 C 124.599 140.75 124.544 140.911 124.822 142.711 C 125.183 145.049 125.213 145.023 123.349 144.024 C 121.458 143.01 121.343 143.01 119.496 144 C 117.685 144.97 117.703 144.97 117.476 144.1 C 117.338 143.573 117.281 143.623 117.246 144.3 C 117.189 145.416 117.59 145.425 119.688 144.355 L 121.344 143.51 L 123.083 144.355 C 125.554 145.556 125.643 145.502 125.346 142.976 C 125.091 140.811 125.123 140.712 126.55 139.251 C 128.252 137.508 128.159 137.302 125.518 136.951 C 123.662 136.705 123.506 136.589 122.572 134.746 C 121.486 132.602 121.465 132.584 120.911 133.3 M 151.717 133.3 C 151.508 133.575 151.038 134.451 150.674 135.248 C 150.076 136.555 149.82 136.721 148.023 136.959 C 145.144 137.341 145.14 137.934 148.003 140.183 C 148.551 140.614 148.324 140.255 147.497 139.387 L 145.994 137.807 L 148.097 137.404 C 150.048 137.029 150.274 136.864 151.217 135.114 L 152.234 133.229 L 153.017 135.018 C 153.825 136.864 155.114 137.592 157.583 137.598 C 158.516 137.6 158.475 137.698 156.783 139.5 L 155 141.4 L 156.883 139.634 C 159.086 137.566 159.037 137.312 156.363 136.957 C 154.455 136.704 154.311 136.598 153.372 134.746 C 152.287 132.603 152.263 132.583 151.717 133.3 M 181.857 134.25 C 181.477 135.047 181.263 135.796 181.381 135.914 C 181.499 136.033 181.795 135.561 182.037 134.865 C 182.527 133.459 183.094 133.237 183.478 134.3 C 184.205 136.315 185.238 137.177 187.243 137.443 L 189.247 137.709 L 187.624 139.317 C 185.969 140.956 185.766 141.583 186.432 143 C 186.719 143.61 186.76 143.464 186.602 142.384 C 186.42 141.134 186.582 140.784 187.981 139.419 C 189.87 137.574 189.782 137.305 187.18 136.96 C 185.307 136.711 185.133 136.585 184.133 134.748 C 182.864 132.416 182.744 132.39 181.857 134.25 M 89.268 134.945 C 88.496 136.587 88.328 136.707 86.44 136.957 C 83.862 137.299 83.733 137.584 85.416 139.215 C 86.522 140.288 86.808 140.882 86.84 142.178 C 86.874 143.581 86.923 143.665 87.2 142.8 C 87.719 141.178 87.671 141.035 86.031 139.328 L 84.461 137.695 L 86.459 137.43 C 88.159 137.204 88.558 136.979 89.129 135.92 C 89.498 135.235 90.115 134.343 90.5 133.937 C 91.032 133.377 91.067 133.2 90.644 133.2 C 90.338 133.2 89.719 133.985 89.268 134.945 M 91.2 134.253 C 91.2 135.629 92.997 137.199 94.855 137.445 L 96.858 137.711 L 95.238 139.361 C 93.782 140.845 93.655 141.132 93.975 142.206 L 94.331 143.4 L 94.366 142.017 C 94.391 140.991 94.779 140.246 95.866 139.132 L 97.333 137.631 L 96.24 137.215 C 95.639 136.987 94.64 136.8 94.02 136.8 C 93.123 136.8 92.755 136.512 92.227 135.4 C 91.612 134.104 91.2 133.644 91.2 134.253 M 119.385 136.094 C 119.242 136.467 118.392 136.804 117.192 136.963 C 114.635 137.303 114.536 137.58 116.346 139.347 C 117.577 140.549 117.835 141.063 117.733 142.112 L 117.608 143.4 L 117.995 142.206 C 118.347 141.118 118.237 140.864 116.762 139.361 L 115.142 137.711 L 117.129 137.447 C 118.985 137.201 120.43 136.296 119.866 135.733 C 119.73 135.597 119.514 135.76 119.385 136.094 M 179.045 136.822 C 176.32 137.279 176.151 137.625 177.803 139.376 C 179.198 140.855 179.224 140.941 178.962 143.254 L 178.694 145.62 L 180.823 144.551 L 182.952 143.482 L 184.692 144.405 C 186.114 145.159 186.52 145.233 186.916 144.805 C 187.272 144.421 187.274 144.353 186.926 144.549 C 186.665 144.695 185.667 144.434 184.708 143.968 C 182.881 143.08 182.674 143.11 179.481 144.719 C 179.305 144.807 179.285 143.949 179.436 142.813 C 179.701 140.817 179.66 140.695 178.228 139.228 L 176.745 137.71 L 178.756 137.444 C 179.862 137.297 180.875 137.002 181.007 136.788 C 181.139 136.575 181.192 136.421 181.124 136.447 C 181.056 136.473 180.12 136.642 179.045 136.822 M 148.176 143.018 C 147.822 145.38 148.046 145.531 150.286 144.443 L 152.154 143.535 L 154.076 144.436 C 156.353 145.502 156.634 145.343 156.052 143.322 L 155.614 141.8 L 155.782 143.3 C 155.978 145.052 156.028 145.031 154.104 144 C 152.245 143.003 151.705 143.003 150.2 144 C 148.515 145.116 148.384 145.031 148.662 143 C 148.798 142.01 148.805 141.2 148.679 141.2 C 148.552 141.2 148.326 142.018 148.176 143.018 M 88.637 144.031 C 87.389 144.701 87.02 144.759 86.749 144.331 C 86.492 143.926 86.411 143.966 86.406 144.5 C 86.398 145.406 86.804 145.382 88.917 144.355 L 90.656 143.51 L 92.312 144.355 C 94.326 145.383 94.802 145.41 94.794 144.5 C 94.789 143.966 94.708 143.926 94.451 144.331 C 94.18 144.759 93.811 144.701 92.563 144.031 C 91.71 143.574 90.827 143.2 90.6 143.2 C 90.373 143.2 89.49 143.574 88.637 144.031 M 107.182 147.634 C 106.936 148.093 106.847 148.58 106.983 148.717 C 107.12 148.853 107.335 148.57 107.461 148.087 C 107.753 146.971 108.325 147.322 109.052 149.063 C 109.634 150.457 110.927 151.236 112.526 151.157 C 113.007 151.134 112.639 150.944 111.709 150.735 C 110.226 150.403 109.922 150.138 109.232 148.578 C 108.363 146.614 107.853 146.379 107.182 147.634 M 137.476 148.554 C 136.814 150.172 136.594 150.355 134.876 150.714 C 133.594 150.981 133.34 151.12 134.074 151.153 C 135.919 151.234 137.009 150.554 137.782 148.84 C 138.522 147.2 139.2 146.691 139.2 147.776 C 139.2 148.093 139.378 148.463 139.595 148.597 C 139.846 148.752 139.866 148.507 139.649 147.92 C 139.088 146.401 138.259 146.643 137.476 148.554 M 169 147.2 C 168.864 147.42 169.006 147.6 169.316 147.6 C 169.625 147.6 170.202 148.317 170.597 149.193 C 171.312 150.778 173.008 151.611 174.479 151.1 C 174.765 151 174.228 150.785 173.284 150.621 C 171.755 150.357 171.479 150.133 170.74 148.562 C 169.912 146.799 169.464 146.449 169 147.2 M 77.2 147.6 C 77.2 147.82 77.336 148 77.502 148 C 77.669 148 78.049 148.552 78.348 149.227 C 78.91 150.496 80.207 151.235 81.726 151.152 C 82.221 151.125 81.88 150.93 80.939 150.703 C 79.556 150.37 79.161 150.043 78.578 148.751 C 77.923 147.299 77.2 146.695 77.2 147.6 M 168.126 148.7 C 167.989 149.085 167.801 149.58 167.709 149.8 C 167.616 150.02 167.824 149.851 168.17 149.424 C 168.799 148.648 168.989 148 168.587 148 C 168.471 148 168.263 148.315 168.126 148.7 M 106.156 149.77 C 106.036 150.084 105.219 150.462 104.342 150.61 C 103.464 150.758 102.84 150.973 102.954 151.088 C 103.416 151.55 106.015 150.719 106.409 149.983 C 106.64 149.552 106.726 149.2 106.602 149.2 C 106.477 149.2 106.276 149.457 106.156 149.77 M 140.019 149.4 C 140.003 150.34 140.797 150.871 142.442 151.022 L 144.2 151.184 L 142.6 150.729 C 141.72 150.479 140.781 149.988 140.513 149.637 C 140.245 149.287 140.022 149.18 140.019 149.4 M 165.2 150.8 L 164.2 151.12 L 165.2 151.132 C 165.75 151.138 166.56 150.989 167 150.8 L 167.8 150.456 L 167 150.468 C 166.56 150.474 165.75 150.624 165.2 150.8 M 82.941 151.475 C 83.093 151.626 82.555 152.427 81.747 153.254 C 80.309 154.727 80.287 154.796 80.721 156.479 L 81.164 158.2 L 80.971 156.389 C 80.794 154.728 80.894 154.466 82.189 153.211 C 83.654 151.791 83.931 151.2 83.133 151.2 C 82.877 151.2 82.79 151.324 82.941 151.475 M 102.669 152.9 C 103.568 153.835 104.401 154.87 104.52 155.2 C 104.704 155.71 104.742 155.704 104.768 155.164 C 104.798 154.568 101.839 151.2 101.286 151.2 C 101.147 151.2 101.769 151.965 102.669 152.9 M 113.766 151.545 C 113.883 151.735 113.334 152.478 112.545 153.196 C 111.173 154.444 111.122 154.586 111.369 156.45 C 111.665 158.684 111.692 158.667 109.584 157.592 L 108 156.784 L 106.416 157.592 C 104.409 158.616 104.405 158.615 104.375 157.3 L 104.349 156.2 L 103.96 157.174 C 103.227 159.01 103.792 159.319 105.917 158.242 L 107.852 157.262 L 109.569 158.031 C 112.051 159.142 112.144 159.087 111.86 156.673 C 111.62 154.632 111.666 154.493 113.005 153.195 C 114.431 151.813 114.729 151.2 113.976 151.2 C 113.743 151.2 113.649 151.355 113.766 151.545 M 132.4 151.492 C 132.4 151.643 133.031 152.413 133.803 153.203 C 135.17 154.603 135.196 154.69 134.836 156.62 C 134.391 158.999 134.47 159.112 136.115 158.436 C 138.31 157.535 139.537 157.467 140.635 158.186 C 141.204 158.559 141.761 158.772 141.873 158.66 C 141.986 158.548 141.34 158.08 140.439 157.62 L 138.8 156.784 L 137.216 157.592 C 135.081 158.681 135.055 158.666 135.346 156.545 C 135.586 154.787 135.515 154.598 134 152.954 C 133.12 151.999 132.4 151.341 132.4 151.492 M 143.485 152.813 C 142.456 153.906 142.015 154.729 142.047 155.495 L 142.095 156.6 L 142.347 155.46 C 142.486 154.833 143.218 153.711 143.974 152.967 C 144.729 152.223 145.262 151.529 145.158 151.425 C 145.055 151.321 144.301 151.946 143.485 152.813 M 163.202 151.509 C 163.203 151.669 163.777 152.411 164.477 153.158 C 165.506 154.257 165.741 154.83 165.705 156.158 L 165.66 157.8 L 166.072 156.29 C 166.467 154.844 166.415 154.706 164.842 152.999 C 163.939 152.019 163.201 151.349 163.202 151.509 M 174.073 152.812 C 173.015 154.044 172.779 154.625 172.909 155.678 L 173.072 157 L 173.136 155.778 C 173.179 154.961 173.663 154.108 174.6 153.2 C 175.934 151.907 176.352 151.16 175.7 151.234 C 175.535 151.252 174.803 151.963 174.073 152.812 M 74.8 158.031 C 73.59 158.687 73.05 159.103 73.6 158.958 C 74.15 158.812 74.955 158.446 75.389 158.146 C 76.489 157.385 77.766 157.464 79.616 158.408 C 80.487 158.853 81.199 159.078 81.199 158.908 C 81.197 158.668 79.148 157.645 77.213 156.92 C 77.096 156.876 76.01 157.376 74.8 158.031 M 167.8 157.639 C 167.14 158.068 166.285 158.341 165.9 158.247 C 165.515 158.152 165.2 158.238 165.2 158.437 C 165.2 158.993 166.304 158.87 167.673 158.162 C 168.353 157.811 169.448 157.604 170.115 157.702 C 171.212 157.863 171.255 157.83 170.585 157.34 C 169.638 156.647 169.263 156.688 167.8 157.639 M 173.2 157.827 C 173.2 158.284 172.97 158.381 172.35 158.184 C 171.831 158.019 171.595 158.068 171.744 158.309 C 172.325 159.249 173.6 159.148 173.6 158.163 C 173.6 157.633 173.51 157.2 173.4 157.2 C 173.29 157.2 173.2 157.482 173.2 157.827 M 89.914 160.903 C 89.598 161.397 89.224 162.16 89.081 162.6 C 88.831 163.374 88.839 163.375 89.311 162.635 C 89.58 162.214 90.108 161.546 90.485 161.15 C 90.862 160.753 91.017 160.334 90.829 160.218 C 90.641 160.102 90.229 160.41 89.914 160.903 M 120.555 161.012 C 120.19 161.569 120.013 162.146 120.162 162.295 C 120.31 162.444 120.538 162.161 120.667 161.666 C 120.987 160.44 121.621 160.758 122.589 162.629 C 123.236 163.879 123.647 164.217 124.601 164.282 L 125.8 164.365 L 124.6 163.991 C 123.712 163.714 123.195 163.146 122.61 161.808 C 121.699 159.721 121.462 159.629 120.555 161.012 M 150.8 161.89 C 150.164 163.089 149.436 163.882 148.8 164.067 C 147.862 164.339 147.873 164.352 148.979 164.278 C 149.952 164.214 150.33 163.865 151.143 162.28 L 152.129 160.359 L 153.164 162.28 C 154.018 163.862 154.411 164.214 155.4 164.282 L 156.6 164.365 L 155.372 163.989 C 154.482 163.718 153.931 163.151 153.372 161.932 C 152.337 159.677 151.976 159.671 150.8 161.89 M 181.6 161.889 C 180.964 163.089 180.236 163.882 179.6 164.067 C 178.664 164.338 178.676 164.352 179.783 164.278 C 180.748 164.214 181.116 163.887 181.782 162.5 C 182.668 160.657 183.085 160.411 183.478 161.5 C 184.106 163.242 185.267 164.399 186.327 164.34 L 187.4 164.28 L 186.293 164.113 C 185.439 163.984 184.958 163.495 184.186 161.973 C 182.957 159.547 182.843 159.543 181.6 161.889 M 91.2 161.453 C 91.2 162.489 92.98 164.398 93.933 164.384 C 94.983 164.369 94.98 164.36 93.697 163.802 C 92.98 163.491 92.22 162.778 92.007 162.218 C 91.65 161.28 91.2 160.853 91.2 161.453 M 119.228 163.367 C 118.96 163.689 118.26 164.026 117.671 164.116 C 116.672 164.269 116.684 164.284 117.851 164.34 C 118.992 164.395 120.4 163.467 119.914 162.981 C 119.804 162.871 119.495 163.044 119.228 163.367 M 87 164 C 86.286 164.307 86.315 164.347 87.276 164.372 C 87.868 164.387 88.464 164.22 88.6 164 C 88.895 163.522 88.111 163.522 87 164 M 84.4 164.925 C 84.4 165.214 84.94 165.968 85.6 166.6 C 86.525 167.486 86.809 168.122 86.841 169.375 L 86.882 171 L 87.213 169.6 C 87.548 168.183 87.095 167.311 85.2 165.719 C 84.667 165.271 84.667 165.171 85.2 164.814 C 85.715 164.469 85.701 164.411 85.1 164.406 C 84.715 164.403 84.4 164.636 84.4 164.925 M 95.997 164.79 C 96.491 165.102 96.333 165.435 95.084 166.714 C 93.781 168.049 93.627 168.393 93.962 169.23 C 94.34 170.176 94.35 170.17 94.375 168.97 C 94.391 168.185 94.775 167.388 95.437 166.77 C 97.104 165.21 97.405 164.399 96.314 164.406 C 95.585 164.411 95.521 164.489 95.997 164.79 M 114.8 164.599 C 114.8 164.708 115.451 165.518 116.246 166.398 C 117.645 167.947 117.683 168.071 117.417 170.2 C 117.266 171.41 117.234 172.4 117.345 172.4 C 117.926 172.4 119.68 171.546 119.49 171.356 C 119.368 171.235 118.893 171.336 118.434 171.582 C 117.472 172.097 117.382 171.755 117.953 169.764 C 118.352 168.373 118.013 167.544 116.452 166.098 C 115.603 165.311 115.53 165.089 116.016 164.782 C 116.474 164.492 116.407 164.411 115.7 164.406 C 115.205 164.403 114.8 164.489 114.8 164.599 M 127.024 164.919 C 127.134 165.204 126.614 165.923 125.87 166.516 C 124.584 167.542 124.527 167.697 124.714 169.642 C 124.906 171.648 124.891 171.683 123.955 171.4 C 123.318 171.207 123.133 171.243 123.4 171.51 C 124.883 172.993 125.62 172.512 125.353 170.238 C 125.101 168.092 125.141 167.962 126.546 166.407 C 128.166 164.613 128.259 164.4 127.413 164.4 C 127.089 164.4 126.915 164.633 127.024 164.919 M 145.6 164.722 C 145.6 164.898 146.242 165.663 147.026 166.422 C 148.422 167.771 148.446 167.848 148.187 170.1 C 147.89 172.674 147.978 172.74 150.169 171.565 C 151.025 171.106 152.142 170.81 152.651 170.908 C 153.16 171.005 153.481 170.93 153.364 170.742 C 153.012 170.173 151.656 170.355 150.014 171.193 L 148.459 171.986 L 148.668 169.893 C 148.861 167.949 148.786 167.709 147.605 166.515 C 146.906 165.808 146.45 165.043 146.591 164.815 C 146.732 164.587 146.567 164.4 146.224 164.4 C 145.881 164.4 145.6 164.545 145.6 164.722 M 157.827 164.844 C 157.98 165.091 157.502 165.802 156.751 166.443 C 156.008 167.079 155.606 167.599 155.859 167.599 C 156.279 167.6 158.8 165.017 158.8 164.586 C 158.8 164.484 158.519 164.4 158.176 164.4 C 157.821 164.4 157.671 164.591 157.827 164.844 M 176.4 164.722 C 176.4 164.898 177.042 165.663 177.826 166.422 C 179.222 167.771 179.246 167.848 178.987 170.1 C 178.686 172.712 178.66 172.692 180.871 171.564 C 181.772 171.104 182.93 170.808 183.443 170.906 C 183.956 171.004 184.281 170.93 184.164 170.742 C 183.829 170.2 181.875 170.368 181.024 171.013 C 179.649 172.052 179.281 171.753 179.504 169.776 C 179.69 168.126 179.585 167.823 178.41 166.61 C 177.695 165.873 177.231 165.074 177.379 164.835 C 177.528 164.593 177.371 164.4 177.024 164.4 C 176.681 164.4 176.4 164.545 176.4 164.722 M 188.346 164.758 C 188.768 165.025 188.546 165.422 187.377 166.493 C 185.872 167.872 185.865 167.895 186.316 169.641 L 186.77 171.4 L 186.576 169.674 C 186.399 168.093 186.501 167.842 187.791 166.7 C 189.318 165.348 189.612 164.396 188.5 164.406 C 187.951 164.411 187.918 164.487 188.346 164.758 M 155.744 170.327 C 155.861 171.569 155.803 171.639 154.835 171.421 C 153.845 171.198 153.834 171.214 154.576 171.794 C 156.193 173.056 156.777 172.304 155.97 170 C 155.655 169.1 155.632 169.133 155.744 170.327 M 198.174 179.4 C 198.175 185.12 198.231 187.404 198.299 184.476 C 198.368 181.548 198.367 176.868 198.299 174.076 C 198.23 171.284 198.174 173.68 198.174 179.4 M 89.462 170.7 C 89.36 170.865 89.872 171 90.6 171 C 91.328 171 91.84 170.865 91.738 170.7 C 91.636 170.535 91.124 170.4 90.6 170.4 C 90.076 170.4 89.564 170.535 89.462 170.7 M 120.262 170.7 C 120.16 170.865 120.672 171 121.4 171 C 122.128 171 122.64 170.865 122.538 170.7 C 122.436 170.535 121.924 170.4 121.4 170.4 C 120.876 170.4 120.364 170.535 120.262 170.7 M 94.4 171.243 C 94.4 171.526 94.002 171.588 93.3 171.415 C 91.993 171.092 92.519 171.765 93.9 172.182 C 94.631 172.403 94.8 172.298 94.8 171.627 C 94.8 171.172 94.71 170.8 94.6 170.8 C 94.49 170.8 94.4 171 94.4 171.243 M 86.401 171.927 C 86.4 172.287 86.684 172.368 87.3 172.182 C 88.768 171.738 88.937 171.309 87.625 171.356 C 86.902 171.382 86.401 171.616 86.401 171.927 M 185.376 171.813 C 185.804 172.136 186.333 172.4 186.553 172.4 C 186.773 172.4 186.604 172.136 186.176 171.813 C 185.749 171.49 185.22 171.225 185 171.225 C 184.78 171.225 184.949 171.49 185.376 171.813 M 106.75 175.065 C 106.109 176.25 105.347 177.087 104.756 177.252 C 103.83 177.512 103.835 177.522 104.905 177.56 C 105.833 177.594 106.15 177.314 106.875 175.82 C 107.851 173.811 108.092 173.828 109.189 175.979 C 109.871 177.314 110.194 177.538 111.784 177.777 C 113.934 178.099 113.986 178.282 112.369 179.825 C 111.211 180.93 111.153 181.124 111.396 183.089 L 111.655 185.177 L 110.427 184.749 C 109.751 184.514 109.098 184.159 108.976 183.961 C 108.656 183.443 107.299 183.516 106.958 184.068 C 106.762 184.386 106.89 184.451 107.358 184.272 C 107.744 184.123 108.731 184.357 109.607 184.804 C 111.966 186.007 112.147 185.903 111.864 183.509 C 111.627 181.506 111.677 181.354 113.054 179.945 C 114.762 178.196 114.618 177.783 112.169 177.416 C 110.671 177.192 110.205 176.914 109.664 175.926 C 108.056 172.987 107.898 172.94 106.75 175.065 M 77.046 173.906 C 77.292 174.068 77.88 174.965 78.354 175.9 C 79.064 177.3 79.409 177.593 80.308 177.56 L 81.4 177.52 L 80.4 177.243 C 79.795 177.075 79.033 176.301 78.47 175.283 C 77.959 174.357 77.329 173.603 77.07 173.606 C 76.731 173.611 76.725 173.694 77.046 173.906 M 137.351 175.311 C 136.613 176.779 136.264 177.052 134.682 177.4 C 132.148 177.957 132.051 178.209 133.714 179.912 C 134.667 180.888 135.119 181.685 135.013 182.204 C 134.278 185.807 134.681 186.505 136.624 184.998 C 137.345 184.438 137.318 184.425 136.243 184.809 L 135.086 185.224 L 135.327 183.189 C 135.556 181.256 135.498 181.087 134.178 179.805 C 132.641 178.312 132.718 178.15 135.162 177.76 C 136.662 177.52 136.938 177.299 137.668 175.745 C 138.674 173.604 138.789 173.602 139.848 175.711 C 140.424 176.856 140.973 177.417 141.555 177.453 C 142.189 177.493 142.221 177.462 141.677 177.335 C 141.272 177.24 140.552 176.361 140.076 175.381 C 139.002 173.171 138.434 173.156 137.351 175.311 M 76.014 175.174 C 75.507 176.121 75.484 176.519 75.952 176.23 C 76.305 176.012 76.855 174.4 76.577 174.4 C 76.495 174.4 76.242 174.748 76.014 175.174 M 170 174.7 C 170 174.891 170.261 175.396 170.58 175.824 C 171.14 176.573 171.152 176.568 170.932 175.694 C 170.704 174.791 170 174.04 170 174.7 M 167.936 175.853 C 167.641 176.465 166.95 177.091 166.4 177.243 L 165.4 177.52 L 166.414 177.56 C 167.382 177.598 169.212 175.479 168.675 174.942 C 168.564 174.831 168.231 175.24 167.936 175.853 M 74.2 177.2 C 73.429 177.531 73.431 177.545 74.276 177.572 C 74.758 177.587 75.264 177.42 75.4 177.2 C 75.692 176.727 75.301 176.727 74.2 177.2 M 70.978 178.036 C 70.829 178.276 71.378 179.158 72.196 179.996 C 73.574 181.407 73.666 181.648 73.443 183.26 C 73.274 184.482 73.313 184.762 73.573 184.2 C 74.328 182.571 74.051 180.999 72.8 179.8 C 71.417 178.475 71.327 178.13 72.3 177.876 C 72.841 177.734 72.8 177.682 72.124 177.646 C 71.642 177.621 71.126 177.796 70.978 178.036 M 82.4 178.056 L 83.4 178.461 L 81.9 179.731 C 80.342 181.049 80.114 181.965 80.834 184 C 81.098 184.749 81.135 184.556 80.978 183.233 C 80.786 181.611 80.89 181.342 82.23 179.969 C 83.754 178.409 83.77 177.582 82.276 177.625 C 81.448 177.649 81.455 177.673 82.4 178.056 M 101.778 178.036 C 101.629 178.276 102.137 179.131 102.906 179.936 C 103.674 180.741 104.401 181.67 104.52 182 C 104.689 182.467 104.744 182.441 104.768 181.887 C 104.786 181.494 104.17 180.543 103.4 179.773 C 101.746 178.119 101.742 178.105 102.9 177.882 C 103.8 177.709 103.8 177.709 102.924 177.654 C 102.442 177.625 101.926 177.796 101.778 178.036 M 143.5 177.882 C 144.656 178.105 144.638 178.223 143.2 179.861 C 142.54 180.613 142.025 181.627 142.054 182.114 C 142.109 182.998 142.109 182.998 142.277 182.138 C 142.37 181.664 143.075 180.627 143.845 179.835 C 145.381 178.254 145.328 177.571 143.676 177.654 C 142.734 177.702 142.712 177.73 143.5 177.882 M 163.378 178.036 C 163.229 178.276 163.74 179.131 164.513 179.936 C 165.678 181.151 165.892 181.638 165.769 182.8 L 165.621 184.2 L 166.074 182.882 C 166.502 181.634 166.443 181.478 164.994 179.994 L 163.462 178.425 L 164.431 178.038 C 165.364 177.665 165.368 177.65 164.524 177.625 C 164.042 177.611 163.526 177.796 163.378 178.036 M 174.3 177.882 C 175.486 178.111 175.437 178.424 174 179.8 C 173.066 180.695 172.814 181.265 172.864 182.375 L 172.928 183.8 L 173.093 182.45 C 173.196 181.609 173.771 180.572 174.62 179.698 C 176.131 178.142 176.091 177.573 174.476 177.654 C 173.534 177.702 173.512 177.73 174.3 177.882 M 104.06 183.667 C 104.027 184.034 103.891 184.619 103.757 184.967 C 103.438 185.799 104.765 185.819 105.824 184.998 C 106.553 184.432 106.534 184.419 105.525 184.778 C 104.544 185.128 104.435 185.066 104.285 184.081 C 104.194 183.486 104.093 183.3 104.06 183.667 M 142.378 184.111 L 142.2 185.223 L 140.615 184.411 C 138.805 183.485 138.167 183.406 137.762 184.062 C 137.577 184.361 137.653 184.414 137.979 184.213 C 138.266 184.036 139.326 184.297 140.44 184.819 C 142.638 185.848 142.925 185.762 142.708 184.137 L 142.557 183 L 142.378 184.111 M 76.174 184.043 C 75.994 184.333 76.162 184.403 76.659 184.245 C 77.083 184.11 78.077 184.356 78.908 184.802 C 79.727 185.241 80.623 185.595 80.899 185.59 C 81.572 185.576 77.697 183.6 76.997 183.6 C 76.694 183.6 76.324 183.799 76.174 184.043 M 167.488 184.434 C 166.656 184.873 165.801 185.124 165.588 184.992 C 165.374 184.861 165.2 184.943 165.2 185.176 C 165.2 185.859 166.399 185.666 167.895 184.741 L 169.285 183.882 L 171.053 184.741 C 173.278 185.822 173.611 185.816 173.554 184.7 C 173.519 184.023 173.462 183.973 173.324 184.5 C 173.093 185.386 172.894 185.376 171.29 184.399 C 169.69 183.423 169.397 183.426 167.488 184.434 M 74.5 184.812 C 74.005 185.011 73.6 185.27 73.6 185.387 C 73.6 185.775 74.237 185.608 75.024 185.013 C 75.908 184.343 75.785 184.296 74.5 184.812 M 89.306 189.082 C 88.195 191.397 88.435 191.884 89.58 189.639 C 90.613 187.614 90.812 187.614 91.744 189.633 C 92.153 190.52 92.552 191.181 92.632 191.102 C 92.91 190.823 91.041 187.2 90.623 187.21 C 90.391 187.215 89.798 188.058 89.306 189.082 M 120.555 188.212 C 120.19 188.769 120.001 189.334 120.135 189.468 C 120.268 189.602 120.568 189.209 120.801 188.596 C 121.207 187.53 121.25 187.514 121.793 188.241 C 122.334 188.965 122.35 188.959 122.133 188.1 C 121.838 186.929 121.374 186.962 120.555 188.212 M 151.695 187.704 C 151.012 188.561 149.933 190.866 150.125 191.058 C 150.226 191.159 150.718 190.396 151.218 189.363 L 152.127 187.485 L 153.091 189.381 C 153.621 190.425 154.141 191.192 154.246 191.087 C 154.465 190.869 152.878 187.696 152.404 187.402 C 152.232 187.296 151.913 187.432 151.695 187.704 M 181.6 189.101 C 180.712 190.788 180.421 191.024 179 191.214 C 176.308 191.574 176.143 191.903 177.798 193.598 C 179.24 195.074 179.264 195.15 178.989 197.352 C 178.669 199.907 178.757 199.958 181.132 198.6 L 182.864 197.61 L 184.68 198.624 C 185.679 199.181 186.582 199.551 186.688 199.446 C 186.793 199.34 185.967 198.792 184.852 198.227 L 182.825 197.199 L 181.401 198 C 179.382 199.134 179.21 199.036 179.461 196.9 C 179.668 195.13 179.586 194.9 178.262 193.541 L 176.841 192.081 L 178.32 191.819 C 180.883 191.366 181.106 191.213 182.009 189.292 L 182.891 187.414 L 183.873 189.346 C 184.413 190.409 184.933 191.2 185.029 191.104 C 185.275 190.859 183.444 187.481 182.982 187.329 C 182.772 187.259 182.15 188.057 181.6 189.101 M 122.4 189.576 C 122.4 190.445 123.933 191.487 125.603 191.754 L 127.328 192.03 L 125.992 193.408 C 124.799 194.64 124.666 195 124.748 196.793 C 124.85 199.029 124.778 199.074 122.806 198.024 C 121.421 197.287 121.398 197.289 119.506 198.248 L 117.6 199.213 L 117.568 198.307 C 117.551 197.808 117.444 197.631 117.331 197.913 C 116.745 199.372 117.55 199.639 119.522 198.639 L 121.461 197.657 L 123.171 198.628 C 125.537 199.972 125.621 199.915 125.334 197.169 L 125.08 194.739 L 126.607 193.419 C 128.277 191.975 127.876 191.2 125.459 191.2 C 124.069 191.2 123.2 190.808 123.2 190.181 C 123.2 189.887 123.02 189.536 122.8 189.4 C 122.58 189.264 122.4 189.343 122.4 189.576 M 84.637 191.724 C 83.971 192.211 84.022 192.336 85.36 193.511 C 86.571 194.574 86.807 195.048 86.841 196.488 L 86.882 198.2 L 87.208 196.813 C 87.59 195.188 87.277 194.467 85.62 193.159 L 84.406 192.2 L 86.303 191.738 C 88.158 191.287 88.168 191.276 86.776 191.238 C 85.994 191.217 85.031 191.436 84.637 191.724 M 94.883 191.687 L 96.766 192.08 L 95.574 193.083 C 93.94 194.458 93.524 195.341 93.977 196.47 C 94.32 197.328 94.351 197.297 94.375 196.066 C 94.394 195.063 94.746 194.425 95.793 193.498 C 97.513 191.976 97.107 191.177 94.651 191.247 L 93 191.295 L 94.883 191.687 M 115.259 191.729 C 114.923 192.134 115.178 192.607 116.35 193.752 C 117.513 194.887 117.849 195.504 117.748 196.323 L 117.615 197.4 L 117.945 196.4 C 118.356 195.151 118.007 194.432 116.385 193.189 L 115.11 192.211 L 116.855 191.745 L 118.6 191.279 L 117.149 191.239 C 116.351 191.218 115.5 191.438 115.259 191.729 M 146.3 191.476 C 145.277 191.743 145.414 192.065 147.3 193.819 L 149 195.4 L 147.479 193.761 L 145.957 192.123 L 147.679 191.709 C 149.112 191.365 149.199 191.296 148.2 191.294 C 147.54 191.294 146.685 191.375 146.3 191.476 M 156.535 191.731 L 158.07 192.2 L 156.998 193.2 C 156.409 193.75 155.733 194.56 155.497 195 C 155.26 195.44 155.817 195.02 156.734 194.067 C 158.937 191.777 158.79 191.152 156.067 191.231 C 155.147 191.257 155.211 191.326 156.535 191.731 M 187.326 191.731 L 188.853 192.2 L 187.426 193.578 C 185.99 194.967 185.74 195.927 186.432 197.4 C 186.716 198.002 186.755 197.839 186.594 196.74 C 186.407 195.472 186.564 195.083 187.789 193.784 C 189.703 191.754 189.487 191.155 186.867 191.231 C 185.943 191.257 186.004 191.324 187.326 191.731 M 148.202 197.185 C 147.811 199.501 148.16 199.735 150.352 198.625 L 152.261 197.657 L 153.996 198.643 C 156.044 199.806 156.633 199.49 156.027 197.554 L 155.603 196.2 L 155.775 197.693 L 155.948 199.187 L 154.053 198.227 L 152.159 197.267 L 150.255 198.232 L 148.351 199.197 L 148.621 197.399 C 148.953 195.182 148.574 194.989 148.202 197.185 M 88.4 198.379 C 87.386 198.918 86.919 198.997 86.706 198.662 C 86.516 198.364 86.41 198.448 86.406 198.9 C 86.398 199.833 86.795 199.785 88.859 198.605 C 90.87 197.455 90.489 197.267 88.4 198.379 M 92.4 198.578 C 94.317 199.582 94.828 199.56 94.754 198.476 C 94.711 197.852 94.693 197.853 94.527 198.486 C 94.36 199.123 94.241 199.116 92.879 198.386 C 92.072 197.954 91.229 197.608 91.006 197.618 C 90.783 197.628 91.41 198.06 92.4 198.578" stroke-linecap="round" />
</g>
</g>
</g>
<g transform="matrix(1.17 0 0 1.17 1434 500)" style="" id="cb2f8ac4-21ed-4767-88cf-f27ce1481864"  >
		<text xml:space="preserve" font-family="Raleway" font-size="200" font-style="normal" font-weight="900" style="stroke: none; stroke-width: 1; stroke-dasharray: none; stroke-linecap: butt; stroke-dashoffset: 0; stroke-linejoin: miter; stroke-miterlimit: 4; fill: rgb(0,0,0); fill-rule: nonzero; opacity: 1; white-space: pre;" ><tspan x="-337.4" y="62.83" >iPhone</tspan></text>
</g>
</svg>