<?xml version="1.0" encoding="UTF-8" standalone="no" ?>
<!DOCTYPE svg PUBLIC "-//W3C//DTD SVG 1.1//EN" "http://www.w3.org/Graphics/SVG/1.1/DTD/svg11.dtd">
<svg xmlns="http://www.w3.org/2000/svg" xmlns:xlink="http://www.w3.org/1999/xlink" version="1.1" width="400" height="100" viewBox="0 0 400 100" xml:space="preserve">
<desc>Created with Fabric.js 3.6.6</desc>
<defs>
</defs>
<g transform="matrix(1.18 0 0 1.18 226.78 55.38)" style=""  >
		<text xml:space="preserve" font-family="'Open Sans', sans-serif" font-size="20" font-style="normal" font-weight="normal" style="stroke: none; stroke-width: 1; stroke-dasharray: none; stroke-linecap: butt; stroke-dashoffset: 0; stroke-linejoin: miter; stroke-miterlimit: 4; fill: rgb(0,0,0); fill-rule: nonzero; opacity: 1; white-space: pre;" ><tspan x="-138.3" y="25.13" style="stroke-width: 1; font-family: 'Open Sans', sans-serif; font-size: 80px; font-style: normal; font-weight: bold; fill: rgb(0,0,0); ">iPhone</tspan></text>
</g>
<g transform="matrix(0.52 0 0 -0.07 33.36 43.36)"  >
<polygon style="stroke: rgb(239,10,10); stroke-width: 0; stroke-dasharray: ; stroke-linecap: butt; stroke-dashoffset: 0; stroke-linejoin: miter; stroke-miterlimit: 4; fill: rgb(255,0,0); fill-rule: nonzero; opacity: 1;" vector-effect="non-scaling-stroke"  points="-50,-50 -50,50 50,50 50,-50 " />
</g>
<g transform="matrix(0.52 0 0 -0.07 33.16 81.41)"  >
<polygon style="stroke: rgb(239,10,10); stroke-width: 0; stroke-dasharray: ; stroke-linecap: butt; stroke-dashoffset: 0; stroke-linejoin: miter; stroke-miterlimit: 4; fill: rgb(255,0,0); fill-rule: nonzero; opacity: 1;"  points="-50,-50 -50,50 50,50 50,-50 " />
</g>
<g transform="matrix(0.54 0 0 -0.07 33.04 55.29)"  >
<polygon style="stroke: rgb(239,10,10); stroke-width: 0; stroke-dasharray: ; stroke-linecap: butt; stroke-dashoffset: 0; stroke-linejoin: miter; stroke-miterlimit: 4; fill: rgb(255,0,0); fill-rule: nonzero; opacity: 1;"  points="-50,-50 -50,50 50,50 50,-50 " />
</g>
<g transform="matrix(0.51 0 0 -0.07 33.5 67.5)"  >
<polygon style="stroke: rgb(239,10,10); stroke-width: 0; stroke-dasharray: ; stroke-linecap: butt; stroke-dashoffset: 0; stroke-linejoin: miter; stroke-miterlimit: 4; fill: rgb(255,0,0); fill-rule: nonzero; opacity: 1;"  points="-50,-50 -50,50 50,50 50,-50 " />
</g>
<g transform="matrix(0.51 0 0 -0.07 34.5 17.5)"  >
<polygon style="stroke: rgb(239,10,10); stroke-width: 0; stroke-dasharray: ; stroke-linecap: butt; stroke-dashoffset: 0; stroke-linejoin: miter; stroke-miterlimit: 4; fill: rgb(255,0,0); fill-rule: nonzero; opacity: 1;"  points="-50,-50 -50,50 50,50 50,-50 " />
</g>
<g transform="matrix(0.51 0 0 -0.07 34.5 30.5)"  >
<polygon style="stroke: rgb(239,10,10); stroke-width: 0; stroke-dasharray: ; stroke-linecap: butt; stroke-dashoffset: 0; stroke-linejoin: miter; stroke-miterlimit: 4; fill: rgb(255,0,0); fill-rule: nonzero; opacity: 1;"  points="-50,-50 -50,50 50,50 50,-50 " />
</g>
<g transform="matrix(0.54 0 0 -0.73 36 48.5)"  >
<polygon style="stroke: rgb(0,0,0); stroke-width: 6; stroke-dasharray: none; stroke-linecap: butt; stroke-dashoffset: 0; stroke-linejoin: round; stroke-miterlimit: 4; fill: none; fill-rule: nonzero; opacity: 1;" vector-effect="non-scaling-stroke"  points="-50,-50 -50,50 50,50 50,-50 " />
</g>
<g transform="matrix(0.27 0 0 0.27 24.49 27.49)"  >
<polygon style="stroke: rgb(0,0,0); stroke-width: 2; stroke-dasharray: ; stroke-linecap: butt; stroke-dashoffset: 0; stroke-linejoin: miter; stroke-miterlimit: 4; fill: rgb(0,18,255); fill-rule: nonzero; opacity: 1;" vector-effect="non-scaling-stroke"  points="-50,-50 -50,50 50,50 50,-50 " />
</g>
</svg>