<?xml version="1.0" encoding="UTF-8" standalone="no" ?>
<!DOCTYPE svg PUBLIC "-//W3C//DTD SVG 1.1//EN" "http://www.w3.org/Graphics/SVG/1.1/DTD/svg11.dtd">
<svg xmlns="http://www.w3.org/2000/svg" xmlns:xlink="http://www.w3.org/1999/xlink" version="1.1" width="1080" height="1080" viewBox="0 0 1080 1080" xml:space="preserve">
<desc>Created with Fabric.js 5.2.4</desc>
<defs>
</defs>
<rect x="0" y="0" width="100%" height="100%" fill="transparent"></rect>
<g transform="matrix(1 0 0 1 540 540)" id="257a31a2-462f-4952-86ee-442595d6074f"  >
</g>
<g transform="matrix(1 0 0 1 540 540)" id="bc148018-40bc-4032-aa96-271292611ae7"  >
<rect style="stroke: none; stroke-width: 1; stroke-dasharray: none; stroke-linecap: butt; stroke-dashoffset: 0; stroke-linejoin: miter; stroke-miterlimit: 4; fill: rgb(255,255,255); fill-rule: nonzero; opacity: 1; visibility: hidden;" vector-effect="non-scaling-stroke"  x="-540" y="-540" rx="0" ry="0" width="1080" height="1080" />
</g>
<g transform="matrix(1 0 0 1 690.7 595.97)" style="" id="12928c5d-3e1a-4329-ada2-220f28d18c38"  >
		<text xml:space="preserve" font-family="Raleway" font-size="200" font-style="normal" font-weight="900" style="stroke: none; stroke-width: 1; stroke-dasharray: none; stroke-linecap: butt; stroke-dashoffset: 0; stroke-linejoin: miter; stroke-miterlimit: 4; fill: rgb(0,0,0); fill-rule: nonzero; opacity: 1; white-space: pre;" ></text>
</g>
<g transform="matrix(0.76 0.65 -2.36 2.79 653.36 578.51)"  >
<path style="stroke: rgb(0,0,0); stroke-width: 0; stroke-dasharray: none; stroke-linecap: butt; stroke-dashoffset: 0; stroke-linejoin: miter; stroke-miterlimit: 4; fill: rgb(0,0,0); fill-opacity: 0; fill-rule: nonzero; opacity: 1;" vector-effect="non-scaling-stroke"  transform=" translate(-50, -50)" d="M 90.375 90.375 L 9.625 90.375 L 9.625 9.625 L 90.375 9.625 L 90.375 90.375 z M 11.625 88.375 L 88.375 88.375 L 88.375 11.625 L 11.625 11.625 L 11.625 88.375 z" stroke-linecap="round" />
</g>
<g transform="matrix(0.23 0.19 -1.36 1.66 501.08 517.06)" id="84021f18-5d26-4ff4-9f6e-29ba448cdb46"  >
<rect style="stroke: rgb(0,0,0); stroke-width: 0; stroke-dasharray: none; stroke-linecap: butt; stroke-dashoffset: 0; stroke-linejoin: miter; stroke-miterlimit: 4; fill: rgb(192,103,103); fill-rule: nonzero; opacity: 1;" vector-effect="non-scaling-stroke"  x="-33.0835" y="-33.0835" rx="0" ry="0" width="66.167" height="66.167" />
</g>
<g transform="matrix(0.23 0.19 -1.51 1.84 506.16 540)" id="84021f18-5d26-4ff4-9f6e-29ba448cdb46"  >
<rect style="stroke: rgb(0,0,0); stroke-width: 0; stroke-dasharray: none; stroke-linecap: butt; stroke-dashoffset: 0; stroke-linejoin: miter; stroke-miterlimit: 4; fill: rgb(238,185,185); fill-rule: nonzero; opacity: 1;" vector-effect="non-scaling-stroke"  x="-33.085" y="-33.085" rx="0" ry="0" width="66.17" height="66.17" />
</g>
</svg>